<?xml version="1.0" encoding="utf-8"?>
<!-- Generator: Adobe Illustrator 27.5.0, SVG Export Plug-In . SVG Version: 6.00 Build 0)  -->
<svg version="1.1" xmlns="http://www.w3.org/2000/svg" xmlns:xlink="http://www.w3.org/1999/xlink" x="0px" y="0px"
	 viewBox="0 0 500 500" style="enable-background:new 0 0 500 500;" xml:space="preserve">
<g id="BACKGROUND">
	<path id="XMLID_180_" style="fill:#FFFAD7;" d="M452.673,433.878c21.902-5.203,26.997-22.933,17.445-41.626
		c-12.629-24.715-9.657-33.17,6.685-105.364c16.344-72.194-60.174-114.47-133.72-112.519c-73.546,1.951-61.333-49.504-172.35-45.528
		C59.717,132.817,34.043,211.442,51.129,241.36c17.086,29.918-2.972,50.081-25.258,100.812
		c-17.833,40.595,17.605,78.27,32.48,91.706H452.673z"/>
	<path id="XMLID_178_" style="fill:#FFF7C2;" d="M270.583,397.709c-69.106,0-125.128,3.261-125.128,7.283
		c0,1.94,13.037,3.704,34.286,5.009c-39.94,0.013-72.267,2.337-72.267,5.203c0,2.873,32.495,5.202,72.58,5.202
		s72.579-2.329,72.579-5.202c0-1.201-5.691-2.307-15.226-3.186c10.566,0.168,21.689,0.259,33.176,0.259
		c69.105,0,125.128-3.261,125.128-7.284C395.711,400.97,339.688,397.709,270.583,397.709z"/>
	<path id="XMLID_520_" style="fill:#FFF7C2;" d="M350.185,427.364c0,1.648-12.229,2.985-27.314,2.985
		c-15.086,0-27.315-1.337-27.315-2.985c0-1.648,12.229-2.984,27.315-2.984C337.956,424.38,350.185,425.716,350.185,427.364z"/>
</g>
<g id="OBJECTS">
	<g id="XMLID_477_">
		<g id="XMLID_485_">
			<g id="XMLID_211_">
				<path id="XMLID_212_" style="fill:#FFB10E;" d="M386.079,249.331c-9.175,0.575-22.623-5.087-7.063-7.535
					c15.561-2.448,33.247-16.908,26.398-26.679c-6.848-9.771-31.391,7.053-25.041-1.405c9.344-12.444,27.377-18.276,19.12-28.67
					c-11.595-14.594-20.043,10.5-24.2,9.51c-4.158-0.989,8.419-20.548,8.965-32.236s-10.555-13.158-10.555-13.158
					s-10.875-2.668-14.616,8.419c-3.743,11.086,0.86,33.88-3.372,33.289c-4.233-0.59-2.977-27.038-19.085-17.66
					c-11.472,6.68,3.206,18.67,7.384,33.661c2.84,10.188-13.904-14.409-23.837-7.798c-9.933,6.611,1.283,26.512,14.889,34.452
					c13.605,7.94-0.981,8.323-9.319,4.451c-11.983-5.566-23.658,9.198-12.704,22.431c4.9,5.92,12.371,11.827,19.13,16.548
					c4.483,3.131,9.486,5.303,14.704,6.483l2.986,0.561c5.29,0.799,10.74,0.595,16.056-0.691c8.013-1.939,17.12-4.726,23.838-8.458
					C404.773,266.504,399.268,248.505,386.079,249.331z"/>
			</g>
		</g>
		<path id="XMLID_484_" style="fill:#103C42;" d="M346.136,302.269c-0.689-0.118-1.151-0.772-1.032-1.462l20.471-118.896
			c0.119-0.689,0.772-1.151,1.462-1.033c0.689,0.119,1.151,0.773,1.032,1.462l-20.471,118.897
			C347.478,301.925,346.825,302.388,346.136,302.269z"/>
		<path id="XMLID_483_" style="fill:#103C42;" d="M360.183,220.684c-0.311-0.054-0.604-0.224-0.806-0.499l-11.302-15.43
			c-0.414-0.564-0.291-1.355,0.271-1.769c0.564-0.413,1.358-0.289,1.769,0.273l11.303,15.429c0.413,0.564,0.291,1.355-0.273,1.769
			C360.857,220.669,360.509,220.74,360.183,220.684z"/>
		<path id="XMLID_482_" style="fill:#103C42;" d="M359.251,226.087c-0.258-0.044-0.506-0.17-0.7-0.374
			c-0.482-0.506-0.462-1.307,0.043-1.79l15.428-14.68c0.507-0.48,1.31-0.46,1.79,0.045c0.482,0.506,0.462,1.307-0.044,1.789
			l-15.428,14.679C360.038,226.044,359.632,226.153,359.251,226.087z"/>
		<path id="XMLID_481_" style="fill:#103C42;" d="M356.925,239.599c-0.239-0.041-0.468-0.151-0.656-0.331l-15.761-15.02
			c-0.507-0.482-0.525-1.283-0.043-1.789c0.48-0.506,1.281-0.527,1.788-0.044l15.761,15.02c0.506,0.482,0.524,1.284,0.043,1.789
			C357.755,239.542,357.327,239.668,356.925,239.599z"/>
		<path id="XMLID_480_" style="fill:#103C42;" d="M355.691,246.77c-0.289-0.05-0.562-0.199-0.762-0.442
			c-0.445-0.539-0.368-1.336,0.171-1.781l15.034-12.393c0.541-0.448,1.339-0.368,1.781,0.171c0.445,0.54,0.368,1.337-0.171,1.781
			l-15.034,12.393C356.414,246.743,356.041,246.83,355.691,246.77z"/>
		<path id="XMLID_479_" style="fill:#103C42;" d="M352.326,266.309c-0.18-0.031-0.355-0.101-0.512-0.212l-15.314-10.77
			c-0.572-0.401-0.711-1.191-0.308-1.763c0.401-0.571,1.194-0.709,1.762-0.308l15.315,10.77c0.571,0.401,0.71,1.191,0.307,1.763
			C353.286,266.203,352.794,266.389,352.326,266.309z"/>
		<path id="XMLID_478_" style="fill:#103C42;" d="M351.344,272.025c-0.416-0.072-0.786-0.35-0.958-0.77
			c-0.264-0.646,0.047-1.386,0.694-1.649l18.25-7.452c0.646-0.266,1.384,0.047,1.65,0.693c0.263,0.647-0.047,1.386-0.694,1.649
			l-18.25,7.452C351.809,272.042,351.569,272.064,351.344,272.025z"/>
	</g>
	<g id="XMLID_486_">
		<g id="XMLID_495_">
			<g id="XMLID_207_">
				<path id="XMLID_208_" style="fill:#FFE837;" d="M234.998,206.518c-7.95,4.616-22.512,5.563-9.686-3.583
					c12.826-9.146,22.183-29.986,11.689-35.666c-10.493-5.679-24.928,20.341-23.028,9.937c2.795-15.309,16.32-28.587,4.288-34.193
					c-16.895-7.873-13.235,18.351-17.397,19.324s-1.653-22.145-6.39-32.844c-4.736-10.699-15.323-7.052-15.323-7.052
					s-10.921,2.475-9.313,14.064c1.608,11.59,15.915,29.922,11.864,31.286c-4.05,1.364-14.749-22.856-24.966-7.267
					c-7.276,11.102,11.213,15.268,21.651,26.81c7.094,7.844-18.879-6.674-24.809,3.68c-5.93,10.354,12.998,23.143,28.719,24.164
					c15.72,1.02,2.842,7.884-6.347,8.147c-13.208,0.378-17.052,18.804-1.338,25.744c7.03,3.105,16.353,5.05,24.51,6.251
					c5.41,0.797,10.855,0.504,16.051-0.772l2.922-0.832c5.089-1.65,9.874-4.269,14.054-7.796
					c6.301-5.316,13.202-11.879,17.544-18.221C259.396,213.523,246.425,199.884,234.998,206.518z"/>
			</g>
		</g>
		<path id="XMLID_494_" style="fill:#103C42;" d="M222.929,271.728c-0.669,0.201-1.375-0.178-1.577-0.847l-34.834-115.508
			c-0.202-0.669,0.177-1.375,0.846-1.577c0.67-0.202,1.375,0.177,1.577,0.846l34.834,115.508
			C223.977,270.819,223.599,271.525,222.929,271.728z"/>
		<path id="XMLID_493_" style="fill:#103C42;" d="M199.026,192.467c-0.303,0.091-0.641,0.07-0.943-0.086l-17.007-8.751
			c-0.622-0.32-0.866-1.083-0.547-1.704c0.32-0.622,1.085-0.866,1.704-0.546l17.007,8.75c0.622,0.32,0.866,1.083,0.547,1.704
			C199.623,192.152,199.344,192.372,199.026,192.467z"/>
		<path id="XMLID_492_" style="fill:#103C42;" d="M200.609,197.718c-0.251,0.075-0.529,0.074-0.794-0.022
			c-0.658-0.237-0.998-0.963-0.761-1.621l7.239-20.027c0.239-0.656,0.966-0.998,1.621-0.76c0.658,0.237,0.998,0.963,0.761,1.62
			l-7.239,20.027C201.294,197.327,200.979,197.606,200.609,197.718z"/>
		<path id="XMLID_491_" style="fill:#103C42;" d="M204.567,210.844c-0.232,0.07-0.486,0.074-0.735-0.003l-20.813-6.391
			c-0.668-0.205-1.043-0.914-0.838-1.581c0.204-0.667,0.912-1.044,1.58-0.838l20.812,6.391c0.668,0.205,1.043,0.913,0.838,1.581
			C205.284,210.422,204.957,210.726,204.567,210.844z"/>
		<path id="XMLID_490_" style="fill:#103C42;" d="M206.669,217.81c-0.281,0.084-0.591,0.073-0.879-0.055
			c-0.639-0.283-0.927-1.031-0.643-1.67l7.909-17.806c0.284-0.642,1.033-0.927,1.67-0.643c0.639,0.284,0.927,1.032,0.643,1.671
			l-7.909,17.806C207.304,217.463,207.009,217.708,206.669,217.81z"/>
		<path id="XMLID_488_" style="fill:#103C42;" d="M212.393,236.792c-0.174,0.052-0.361,0.068-0.552,0.039l-18.514-2.788
			c-0.691-0.104-1.168-0.749-1.063-1.44c0.104-0.69,0.751-1.168,1.439-1.063l18.514,2.788c0.691,0.104,1.168,0.749,1.063,1.44
			C213.204,236.269,212.847,236.655,212.393,236.792z"/>
		<path id="XMLID_487_" style="fill:#103C42;" d="M214.07,242.345c-0.405,0.122-0.86,0.039-1.201-0.259
			c-0.525-0.461-0.578-1.261-0.117-1.786l12.995-14.824c0.458-0.526,1.259-0.577,1.786-0.118c0.525,0.461,0.578,1.261,0.117,1.787
			l-12.995,14.824C214.493,242.153,214.289,242.279,214.07,242.345z"/>
	</g>
	<g id="XMLID_460_">
		<g id="XMLID_256_">
			<path id="XMLID_448_" style="fill:#33AF61;" d="M411.967,307.446c-7.442-2.77-16.066-11.962-2.927-8.428
				c13.141,3.535,32.176-1.663,30.204-11.779c-1.972-10.116-27.249-5.462-19.267-9.905c11.745-6.538,28.024-4.806,25.16-15.908
				c-4.023-15.59-19.505,1.245-22.439-0.997c-2.934-2.241,13.863-13.257,18.4-22.289c4.536-9.032-3.707-14.091-3.707-14.091
				s-7.645-5.926-14.492,1.508c-6.848,7.434-11.222,27.039-14.354,25.086c-3.134-1.953,7.148-22.383-8.857-20.64
				c-11.398,1.241-4.028,15.859-5.997,29.156c-1.338,9.037-5.911-16.255-16.071-14.527c-10.161,1.728-8.302,21.372-0.354,32.418
				c7.947,11.045-3.699,6.223-8.918,0.238c-7.502-8.603-21.901-1.052-17.905,13.238c1.787,6.393,5.607,13.679,9.283,19.778
				c2.439,4.046,5.623,7.518,9.326,10.282l2.158,1.492c3.894,2.488,8.268,4.242,12.913,5.094c7.005,1.285,15.17,2.285,21.783,1.7
				C420.685,327.565,422.664,311.427,411.967,307.446z"/>
		</g>
		<path id="XMLID_470_" style="fill:#103C42;" d="M361.849,335.19c-0.502-0.336-0.636-1.015-0.301-1.517l57.922-86.634
			c0.336-0.502,1.014-0.637,1.517-0.301c0.502,0.336,0.637,1.015,0.301,1.517l-57.922,86.634
			C363.03,335.39,362.352,335.524,361.849,335.19z"/>
		<path id="XMLID_471_" style="fill:#103C42;" d="M401.594,275.742c-0.227-0.152-0.398-0.39-0.46-0.678l-3.499-16.147
			c-0.128-0.59,0.247-1.171,0.836-1.3c0.591-0.128,1.174,0.248,1.301,0.837l3.498,16.146c0.128,0.59-0.246,1.172-0.836,1.3
			C402.132,275.967,401.832,275.9,401.594,275.742z"/>
		<path id="XMLID_472_" style="fill:#103C42;" d="M398.961,279.679c-0.188-0.126-0.34-0.312-0.422-0.542
			c-0.202-0.568,0.095-1.193,0.663-1.396l17.332-6.165c0.568-0.2,1.194,0.097,1.397,0.664c0.202,0.569-0.095,1.194-0.663,1.397
			l-17.332,6.164C399.598,279.921,399.238,279.864,398.961,279.679z"/>
		<path id="XMLID_473_" style="fill:#103C42;" d="M392.379,289.523c-0.174-0.116-0.316-0.283-0.402-0.491l-7.161-17.39
			c-0.23-0.559,0.037-1.197,0.595-1.427c0.558-0.23,1.197,0.034,1.427,0.594l7.16,17.39c0.23,0.559-0.036,1.197-0.594,1.427
			C393.054,289.771,392.672,289.72,392.379,289.523z"/>
		<path id="XMLID_474_" style="fill:#103C42;" d="M388.886,294.75c-0.21-0.141-0.373-0.354-0.445-0.617
			c-0.162-0.582,0.179-1.184,0.761-1.345l16.218-4.499c0.584-0.163,1.186,0.181,1.346,0.761c0.161,0.582-0.18,1.185-0.762,1.346
			l-16.217,4.499C389.466,294.982,389.141,294.92,388.886,294.75z"/>
		<path id="XMLID_475_" style="fill:#103C42;" d="M379.366,308.986c-0.13-0.088-0.243-0.204-0.329-0.347l-8.303-13.879
			c-0.31-0.518-0.142-1.19,0.378-1.499c0.517-0.31,1.19-0.14,1.498,0.376l8.303,13.879c0.31,0.518,0.142,1.189-0.377,1.499
			C380.161,309.24,379.707,309.214,379.366,308.986z"/>
		<path id="XMLID_476_" style="fill:#103C42;" d="M376.584,313.152c-0.304-0.203-0.498-0.552-0.486-0.943
			c0.018-0.604,0.523-1.077,1.127-1.059l17.02,0.531c0.603,0.017,1.075,0.522,1.059,1.126c-0.02,0.604-0.523,1.077-1.127,1.059
			l-17.02-0.531C376.944,313.329,376.748,313.262,376.584,313.152z"/>
	</g>
	<g id="XMLID_503_">
		<g id="XMLID_518_">
			<path id="XMLID_522_" style="fill:#33AF61;" d="M143.277,310.247c-6.11,5.071-18.379,7.965-8.764-1.665
				c9.614-9.629,14.597-28.722,4.844-32.056c-9.752-3.333-18.318,20.9-18.191,11.766c0.187-13.441,9.804-26.689-1.248-29.741
				c-15.521-4.284-8.644,17.529-12.049,18.955c-3.405,1.425-4.583-18.627-10.151-27.062c-5.568-8.435-14.063-3.811-14.063-3.811
				s-8.948,3.673-5.917,13.314c3.031,9.643,17.845,23.207,14.591,24.949c-3.255,1.743-15.839-17.354-22.308-2.61
				c-4.606,10.5,11.74,11.397,22.286,19.733c7.167,5.664-17.038-2.98-20.605,6.69c-3.567,9.669,14.39,17.85,27.927,16.467
				c13.537-1.384,3.551,6.309-4.239,7.85c-11.196,2.215-11.83,18.461,2.551,22.121c6.433,1.637,14.653,1.957,21.774,1.812
				c4.722-0.097,9.319-1.127,13.562-2.959l2.37-1.128c4.099-2.136,7.798-5.052,10.854-8.655c4.605-5.432,9.543-12.011,12.332-18.035
				C165.064,312.717,152.06,302.957,143.277,310.247z"/>
		</g>
		<path id="XMLID_517_" style="fill:#103C42;" d="M142.344,367.522c-0.542,0.268-1.197,0.047-1.464-0.494L94.65,273.63
			c-0.268-0.542-0.047-1.197,0.495-1.465c0.541-0.268,1.197-0.047,1.465,0.494l46.229,93.399
			C143.106,366.6,142.885,367.255,142.344,367.522z"/>
		<path id="XMLID_516_" style="fill:#103C42;" d="M110.622,303.434c-0.245,0.122-0.536,0.152-0.816,0.063l-15.741-5.017
			c-0.576-0.183-0.893-0.798-0.711-1.373c0.183-0.574,0.8-0.893,1.373-0.709l15.741,5.016c0.576,0.183,0.893,0.798,0.711,1.373
			C111.085,303.08,110.878,303.307,110.622,303.434z"/>
		<path id="XMLID_514_" style="fill:#103C42;" d="M112.722,307.68c-0.203,0.101-0.44,0.139-0.68,0.095
			c-0.594-0.107-0.988-0.677-0.88-1.271l3.295-18.098c0.109-0.593,0.68-0.988,1.272-0.88c0.594,0.108,0.988,0.678,0.88,1.272
			l-3.295,18.098C113.249,307.249,113.021,307.531,112.722,307.68z"/>
		<path id="XMLID_513_" style="fill:#103C42;" d="M117.976,318.293c-0.188,0.093-0.403,0.133-0.626,0.104l-18.645-2.461
			c-0.599-0.078-1.02-0.628-0.941-1.226c0.078-0.598,0.627-1.021,1.226-0.94l18.645,2.461c0.599,0.079,1.02,0.628,0.941,1.227
			C118.526,317.831,118.291,318.137,117.976,318.293z"/>
		<path id="XMLID_512_" style="fill:#103C42;" d="M120.765,323.926c-0.227,0.112-0.493,0.147-0.756,0.079
			c-0.585-0.149-0.937-0.745-0.787-1.33l4.185-16.302c0.15-0.587,0.747-0.938,1.33-0.787c0.585,0.15,0.937,0.746,0.787,1.331
			l-4.185,16.301C121.256,323.539,121.04,323.79,120.765,323.926z"/>
		<path id="XMLID_507_" style="fill:#103C42;" d="M128.361,339.275c-0.141,0.069-0.298,0.109-0.465,0.112l-16.169,0.279
			c-0.604,0.01-1.103-0.471-1.112-1.075c-0.01-0.603,0.473-1.102,1.073-1.111l16.17-0.278c0.604-0.011,1.102,0.47,1.112,1.074
			C128.977,338.713,128.729,339.093,128.361,339.275z"/>
		<path id="XMLID_506_" style="fill:#103C42;" d="M130.585,343.765c-0.327,0.162-0.727,0.156-1.061-0.049
			c-0.513-0.317-0.672-0.991-0.355-1.505l8.944-14.489c0.315-0.515,0.99-0.672,1.504-0.357c0.513,0.317,0.673,0.99,0.355,1.505
			l-8.944,14.489C130.919,343.54,130.763,343.677,130.585,343.765z"/>
	</g>
	<g id="XMLID_496_">
		<g id="XMLID_511_">
			<path id="XMLID_515_" style="fill:#33AF61;" d="M306.718,245.46c-7.83,1.321-19.895-2.332-6.746-5.837
				c13.147-3.505,27.038-17.521,20.274-25.298c-6.764-7.776-26.332,8.887-21.639,1.049c6.905-11.533,21.872-18.167,13.842-26.352
				c-11.275-11.493-16.271,10.826-19.933,10.35s5.382-18.412,4.798-28.502c-0.584-10.09-10.253-10.352-10.253-10.352
				s-9.583-1.313-11.799,8.548c-2.216,9.861,3.792,29.028,0.103,28.903c-3.689-0.125-4.993-22.96-17.986-13.452
				c-9.253,6.771,4.436,15.75,9.376,28.251c3.357,8.496-13.243-11.126-21.18-4.551c-7.938,6.574,3.491,22.661,15.894,28.256
				c12.403,5.595-0.094,7.239-7.605,4.664c-10.796-3.702-19.495,10.033-8.893,20.414c4.743,4.645,11.692,9.046,17.925,12.492
				c4.134,2.286,8.627,3.701,13.216,4.245l2.616,0.214c4.616,0.209,9.28-0.457,13.731-2.041c6.71-2.388,14.282-5.602,19.717-9.413
				C324.324,258.527,317.973,243.561,306.718,245.46z"/>
		</g>
		<path id="XMLID_510_" style="fill:#103C42;" d="M277.172,294.535c-0.604-0.039-1.059-0.561-1.019-1.163l6.875-103.986
			c0.039-0.602,0.56-1.059,1.162-1.018c0.603,0.04,1.059,0.561,1.02,1.163l-6.875,103.986
			C278.295,294.119,277.774,294.575,277.172,294.535z"/>
		<path id="XMLID_509_" style="fill:#103C42;" d="M281.889,223.182c-0.273-0.018-0.539-0.138-0.736-0.356l-11.1-12.237
			c-0.406-0.447-0.372-1.138,0.074-1.544c0.447-0.405,1.141-0.371,1.544,0.076l11.1,12.237c0.406,0.447,0.372,1.138-0.074,1.544
			C282.468,223.108,282.175,223.201,281.889,223.182z"/>
		<path id="XMLID_508_" style="fill:#103C42;" d="M281.575,227.908c-0.226-0.015-0.45-0.1-0.635-0.259
			c-0.46-0.391-0.515-1.081-0.124-1.541l11.931-14.001c0.392-0.458,1.084-0.514,1.542-0.122c0.459,0.392,0.515,1.081,0.123,1.541
			l-11.931,14.001C282.248,227.8,281.909,227.93,281.575,227.908z"/>
		<path id="XMLID_502_" style="fill:#103C42;" d="M280.794,239.725c-0.208-0.014-0.415-0.087-0.594-0.225l-14.893-11.484
			c-0.478-0.369-0.566-1.056-0.198-1.533c0.367-0.478,1.054-0.568,1.532-0.198l14.893,11.483c0.479,0.369,0.567,1.056,0.198,1.534
			C281.502,239.602,281.146,239.748,280.794,239.725z"/>
		<path id="XMLID_501_" style="fill:#103C42;" d="M280.381,245.997c-0.253-0.017-0.5-0.12-0.694-0.311
			c-0.431-0.423-0.436-1.115-0.014-1.546l11.8-12.001c0.424-0.433,1.116-0.437,1.546-0.013c0.431,0.423,0.436,1.115,0.013,1.546
			l-11.799,12.001C281,245.909,280.686,246.017,280.381,245.997z"/>
		<path id="XMLID_498_" style="fill:#103C42;" d="M279.25,263.085c-0.156-0.011-0.314-0.055-0.459-0.136l-14.127-7.872
			c-0.527-0.294-0.717-0.96-0.423-1.487c0.294-0.526,0.963-0.717,1.486-0.423l14.127,7.872c0.527,0.294,0.718,0.96,0.423,1.487
			C280.065,262.907,279.659,263.111,279.25,263.085z"/>
		<path id="XMLID_497_" style="fill:#103C42;" d="M278.922,268.084c-0.365-0.024-0.707-0.229-0.894-0.573
			c-0.284-0.533-0.084-1.195,0.448-1.48l15.007-8.046c0.53-0.286,1.193-0.084,1.48,0.446c0.284,0.532,0.084,1.195-0.448,1.48
			l-15.007,8.046C279.322,268.058,279.118,268.098,278.922,268.084z"/>
	</g>
	<g id="XMLID_327_">
		
			<ellipse id="XMLID_293_" transform="matrix(0.2318 -0.9728 0.9728 0.2318 12.5003 252.6665)" style="fill:#9CF8F5;" cx="166.23" cy="118.418" rx="20.99" ry="20.99"/>
		
			<ellipse id="XMLID_303_" transform="matrix(0.2315 -0.9728 0.9728 0.2315 12.5519 252.7256)" style="fill:#103C42;" cx="166.23" cy="118.418" rx="17.241" ry="17.241"/>
		<path id="XMLID_304_" style="fill:#FFFFFF;" d="M159.993,125.235v-13.633c0-1.453,1.596-2.342,2.831-1.577l11.008,6.816
			c1.171,0.725,1.171,2.428,0,3.153l-11.008,6.817C161.589,127.577,159.993,126.688,159.993,125.235z"/>
		<path id="XMLID_305_" style="fill:#103C42;" d="M176.393,109.502c0,3.895-4.55,7.051-10.163,7.051
			c-5.612,0-10.162-3.157-10.162-7.051c0-3.895,4.55-7.052,10.162-7.052C171.843,102.45,176.393,105.607,176.393,109.502z"/>
	</g>
	<g id="XMLID_201_">
		<g id="XMLID_158_">
			<path id="XMLID_37_" style="fill:#103C42;" d="M227.089,187.185H95.94v-4.616c0-2.05,1.663-3.713,3.713-3.713h123.722
				c2.051,0,3.713,1.663,3.713,3.713V187.185z"/>
			<path id="XMLID_154_" style="fill:#9CF8F5;" d="M227.089,187.185H95.94v81.525c0,2.051,1.663,3.713,3.713,3.713h123.722
				c2.051,0,3.713-1.662,3.713-3.713V187.185z"/>
			<g id="XMLID_184_">
				<circle id="XMLID_183_" style="fill:#FFFFFF;" cx="219.512" cy="183.02" r="1.612"/>
				<circle id="XMLID_185_" style="fill:#FFFFFF;" cx="214.326" cy="183.02" r="1.612"/>
				<path id="XMLID_186_" style="fill:#FFFFFF;" d="M210.752,183.02c0-0.89-0.722-1.612-1.612-1.612
					c-0.891,0-1.612,0.722-1.612,1.612c0,0.89,0.722,1.612,1.612,1.612C210.03,184.632,210.752,183.911,210.752,183.02z"/>
			</g>
		</g>
		<g id="XMLID_161_">
			<path id="XMLID_189_" style="fill:#FFFFFF;" d="M159.836,205.495h-56.909c-0.406,0-0.736-0.33-0.736-0.736v-10.064
				c0-0.406,0.33-0.736,0.736-0.736h56.909c0.406,0,0.736,0.33,0.736,0.736v10.064C160.572,205.165,160.242,205.495,159.836,205.495
				z"/>
			<path id="XMLID_236_" style="fill:#103C42;" d="M159.836,265.508h-56.909c-0.406,0-0.736-0.329-0.736-0.736v-12.146
				c0-0.406,0.33-0.735,0.736-0.735h56.909c0.406,0,0.736,0.329,0.736,0.735v12.146
				C160.572,265.179,160.242,265.508,159.836,265.508z"/>
			<path id="XMLID_235_" style="fill:#103C42;" d="M220.389,205.495h-54.736c-0.406,0-0.736-0.33-0.736-0.736v-10.064
				c0-0.406,0.33-0.736,0.736-0.736h54.736c0.406,0,0.735,0.33,0.735,0.736v10.064C221.124,205.165,220.795,205.495,220.389,205.495
				z"/>
			<path id="XMLID_196_" style="fill:#FFFFFF;" d="M220.389,210.19H102.927c-0.406,0-0.736-0.33-0.736-0.736l0,0
				c0-0.407,0.33-0.736,0.736-0.736h117.461c0.406,0,0.735,0.329,0.735,0.736l0,0C221.124,209.861,220.795,210.19,220.389,210.19z"
				/>
			<path id="XMLID_206_" style="fill:#FFFFFF;" d="M220.389,214.115H102.927c-0.406,0-0.736-0.33-0.736-0.736l0,0
				c0-0.407,0.33-0.736,0.736-0.736h117.461c0.406,0,0.735,0.329,0.735,0.736l0,0C221.124,213.786,220.795,214.115,220.389,214.115z
				"/>
			<path id="XMLID_210_" style="fill:#103C42;" d="M160.204,218.04h-57.276c-0.406,0-0.736-0.33-0.736-0.736l0,0
				c0-0.407,0.33-0.736,0.736-0.736h57.276c0.407,0,0.736,0.33,0.736,0.736l0,0C160.939,217.71,160.61,218.04,160.204,218.04z"/>
			<path id="XMLID_213_" style="fill:#FFFFFF;" d="M220.389,221.964H102.927c-0.406,0-0.736-0.329-0.736-0.736l0,0
				c0-0.406,0.33-0.736,0.736-0.736h117.461c0.406,0,0.735,0.33,0.735,0.736l0,0C221.124,221.635,220.795,221.964,220.389,221.964z"
				/>
			<path id="XMLID_222_" style="fill:#FFFFFF;" d="M220.389,225.889H102.927c-0.406,0-0.736-0.33-0.736-0.736l0,0
				c0-0.406,0.33-0.736,0.736-0.736h117.461c0.406,0,0.735,0.33,0.735,0.736l0,0C221.124,225.56,220.795,225.889,220.389,225.889z"
				/>
			<path id="XMLID_223_" style="fill:#FFFFFF;" d="M220.389,229.814H102.927c-0.406,0-0.736-0.33-0.736-0.736l0,0
				c0-0.406,0.33-0.736,0.736-0.736h117.461c0.406,0,0.735,0.33,0.735,0.736l0,0C221.124,229.484,220.795,229.814,220.389,229.814z"
				/>
			<path id="XMLID_225_" style="fill:#FFFFFF;" d="M220.389,233.739H102.927c-0.406,0-0.736-0.33-0.736-0.736l0,0
				c0-0.407,0.33-0.736,0.736-0.736h117.461c0.406,0,0.735,0.329,0.735,0.736l0,0C221.124,233.409,220.795,233.739,220.389,233.739z
				"/>
			<path id="XMLID_227_" style="fill:#FFFFFF;" d="M220.389,237.664H102.927c-0.406,0-0.736-0.33-0.736-0.736l0,0
				c0-0.406,0.33-0.736,0.736-0.736h117.461c0.406,0,0.735,0.33,0.735,0.736l0,0C221.124,237.334,220.795,237.664,220.389,237.664z"
				/>
			<path id="XMLID_228_" style="fill:#FFFFFF;" d="M220.389,241.588H102.927c-0.406,0-0.736-0.329-0.736-0.736l0,0
				c0-0.406,0.33-0.736,0.736-0.736h117.461c0.406,0,0.735,0.33,0.735,0.736l0,0C221.124,241.259,220.795,241.588,220.389,241.588z"
				/>
			<path id="XMLID_229_" style="fill:#FFFFFF;" d="M220.389,245.513H102.927c-0.406,0-0.736-0.329-0.736-0.736l0,0
				c0-0.406,0.33-0.736,0.736-0.736h117.461c0.406,0,0.735,0.33,0.735,0.736l0,0C221.124,245.184,220.795,245.513,220.389,245.513z"
				/>
			<path id="XMLID_230_" style="fill:#103C42;" d="M220.389,249.438H102.927c-0.406,0-0.736-0.33-0.736-0.736l0,0
				c0-0.407,0.33-0.736,0.736-0.736h117.461c0.406,0,0.735,0.329,0.735,0.736l0,0C221.124,249.108,220.795,249.438,220.389,249.438z
				"/>
			<path id="XMLID_231_" style="fill:#FFFFFF;" d="M220.389,253.362h-54.736c-0.406,0-0.736-0.33-0.736-0.736l0,0
				c0-0.406,0.33-0.735,0.736-0.735h54.736c0.406,0,0.735,0.329,0.735,0.735l0,0C221.124,253.032,220.795,253.362,220.389,253.362z"
				/>
			<path id="XMLID_232_" style="fill:#FFFFFF;" d="M220.389,257.287h-54.736c-0.406,0-0.736-0.33-0.736-0.736l0,0
				c0-0.406,0.33-0.736,0.736-0.736h54.736c0.406,0,0.735,0.33,0.735,0.736l0,0C221.124,256.957,220.795,257.287,220.389,257.287z"
				/>
			<path id="XMLID_233_" style="fill:#FFFFFF;" d="M220.389,261.212h-54.736c-0.406,0-0.736-0.33-0.736-0.736l0,0
				c0-0.406,0.33-0.736,0.736-0.736h54.736c0.406,0,0.735,0.33,0.735,0.736l0,0C221.124,260.882,220.795,261.212,220.389,261.212z"
				/>
			<path id="XMLID_234_" style="fill:#FFFFFF;" d="M220.389,265.136h-54.736c-0.406,0-0.736-0.329-0.736-0.735l0,0
				c0-0.406,0.33-0.736,0.736-0.736h54.736c0.406,0,0.735,0.33,0.735,0.736l0,0C221.124,264.807,220.795,265.136,220.389,265.136z"
				/>
		</g>
	</g>
	<g id="XMLID_20_">
		<path id="XMLID_27_" style="fill:#103C42;" d="M374.869,257.302l-101.126,15.535l-101.126-15.535
			c-6.285-0.966-12.13,3.44-12.932,9.748l-12.937,101.683c-0.74,5.816,3.089,11.232,8.818,12.476
			c39.141,2.785,76.286,10.686,111.613,23.246c4.247,1.51,8.897,1.433,13.095-0.207c39.476-15.416,77.115-24.549,111.645-23.039
			c5.729-1.243,9.559-6.659,8.818-12.476L387.801,267.05C386.999,260.742,381.154,256.336,374.869,257.302z"/>
		<g id="XMLID_17_">
			<path id="XMLID_19_" style="fill:#FFB10E;" d="M375.81,268.631l-12.917-13.091l-89.15,123.471L184.592,255.54l-13.475,14.503
				l-15.252,99.372c42.991-5.745,94.417,9.745,117.878,23.477c23.461-13.731,74.887-29.222,117.877-23.477L375.81,268.631z"/>
			<path id="XMLID_13_" style="fill:#FFF9CF;" d="M273.743,276.896c0,0-36.453-21.356-89.151-21.356l-15.057,96.68
				c0,0,70.528-9.91,104.208,26.791V276.896z"/>
			<path id="XMLID_16_" style="fill:#FFF9CF;" d="M273.743,276.896c0,0,36.452-21.356,89.15-21.356l15.057,96.68
				c0,0-70.528-9.91-104.207,26.791V276.896z"/>
			<path id="XMLID_15_" style="opacity:0.6;fill:#F9EFCE;" d="M167.356,353.17l-7.528,10.104l8.519-67.557l-10.896,71.519
				c0,0,22.783-4.755,66.368,4.358c0,0-24.764-9.311-61.019-8.122L167.356,353.17z"/>
			<path id="XMLID_18_" style="opacity:0.6;fill:#F9EFCE;" d="M380.13,353.17l7.528,10.104l-8.519-67.557l10.896,71.519
				c0,0-22.783-4.755-66.368,4.358c0,0,24.765-9.311,61.02-8.122L380.13,353.17z"/>
			<g id="XMLID_163_">
				<path id="XMLID_294_" style="fill:#FFD039;" d="M266.228,285.069c-0.083,0-0.167-0.024-0.24-0.074
					c-0.131-0.091-6.806-4.621-19.175-9.128c-6.185-2.254-13.794-4.502-22.719-6.186c-8.926-1.685-19.168-2.806-30.622-2.806
					c-0.152,0-0.298,0-0.45,0h-0.001c-0.232,0-0.42-0.188-0.421-0.419c-0.001-0.232,0.188-0.421,0.419-0.422c0.15,0,0.303,0,0.452,0
					c11.525,0,21.833,1.13,30.817,2.829c8.983,1.698,16.643,3.965,22.87,6.236c12.454,4.545,19.177,9.112,19.31,9.204
					c0.19,0.132,0.237,0.394,0.105,0.585C266.492,285.007,266.361,285.069,266.228,285.069z"/>
				<path id="XMLID_282_" style="fill:#FFD039;" d="M191.11,275.568c0.153-0.002,0.308-0.004,0.461-0.005
					c11.771-0.124,22.315,0.936,31.517,2.6c9.218,1.666,17.088,3.938,23.492,6.231c12.808,4.588,19.751,9.264,19.887,9.358
					c0.191,0.132,0.24,0.393,0.108,0.585c-0.082,0.119-0.213,0.183-0.347,0.183c-0.082,0-0.166-0.024-0.238-0.074
					c-0.136-0.093-7.029-4.732-19.752-9.283c-6.361-2.275-14.18-4.528-23.339-6.181c-9.135-1.649-19.605-2.7-31.294-2.579
					c-0.154,0.001-0.304,0.003-0.458,0.005c0,0-0.001,0-0.001,0c-0.064,0.001-0.124-0.011-0.18-0.032
					c-0.151-0.056-0.26-0.198-0.268-0.368c-0.002-0.033,0.001-0.065,0.007-0.098C190.74,275.718,190.907,275.571,191.11,275.568z"/>
				<path id="XMLID_281_" style="fill:#FFD039;" d="M189.201,285.103c0.156-0.004,0.314-0.007,0.469-0.011
					c12.018-0.247,22.798,0.743,32.217,2.371c9.453,1.633,17.534,3.91,24.114,6.226c13.162,4.631,20.324,9.417,20.464,9.513
					c0.191,0.131,0.241,0.393,0.11,0.585c-0.082,0.118-0.214,0.183-0.348,0.183c-0.082,0-0.165-0.025-0.237-0.073
					c-0.14-0.095-7.252-4.844-20.327-9.439c-6.538-2.297-14.567-4.556-23.96-6.175c-9.345-1.613-20.042-2.595-31.966-2.353
					c-0.157,0.003-0.31,0.007-0.467,0.01h-0.001c-0.064,0.002-0.126-0.008-0.184-0.024c-0.158-0.047-0.275-0.186-0.291-0.355
					c-0.002-0.034-0.002-0.066,0.003-0.1C188.826,285.262,188.994,285.106,189.201,285.103z"/>
				<path id="XMLID_280_" style="fill:#FFD039;" d="M187.292,294.636c0.159-0.005,0.319-0.01,0.478-0.015
					c12.264-0.371,23.281,0.549,32.916,2.143c9.687,1.6,17.979,3.882,24.737,6.22c13.516,4.674,20.896,9.568,21.042,9.666
					c0.191,0.131,0.242,0.393,0.111,0.585c-0.081,0.119-0.213,0.184-0.348,0.184c-0.082,0-0.164-0.023-0.236-0.072
					c-0.144-0.098-7.475-4.955-20.903-9.593c-6.714-2.319-14.953-4.583-24.58-6.171c-9.555-1.577-20.479-2.488-32.638-2.126
					c-0.16,0.005-0.316,0.009-0.477,0.015c0,0-0.001,0-0.001,0c-0.065,0.002-0.128-0.005-0.188-0.019
					c-0.165-0.036-0.292-0.172-0.314-0.343c-0.004-0.033-0.005-0.067-0.001-0.101C186.912,294.806,187.081,294.643,187.292,294.636z
					"/>
				<path id="XMLID_279_" style="fill:#FFD039;" d="M185.382,304.17c0.162-0.007,0.326-0.014,0.487-0.02
					c12.51-0.495,23.763,0.355,33.616,1.913c9.922,1.567,18.424,3.855,25.359,6.214c13.87,4.718,21.47,9.721,21.62,9.821
					c0.192,0.13,0.243,0.391,0.113,0.584c-0.081,0.12-0.214,0.186-0.349,0.186c-0.081,0-0.163-0.023-0.235-0.072
					c-0.148-0.1-7.697-5.066-21.479-9.748c-6.891-2.341-15.339-4.61-25.201-6.165c-9.765-1.541-20.915-2.383-33.309-1.9
					c-0.163,0.007-0.323,0.013-0.485,0.02c-0.001,0-0.001,0-0.001,0c-0.066,0.003-0.13-0.002-0.191-0.011
					c-0.172-0.026-0.307-0.159-0.337-0.331c-0.006-0.033-0.008-0.067-0.005-0.102C184.998,304.35,185.167,304.179,185.382,304.17z"
					/>
				<path id="XMLID_277_" style="fill:#FFD039;" d="M183.473,313.703c0.165-0.008,0.331-0.016,0.496-0.024
					c12.756-0.617,24.246,0.161,34.316,1.685c10.156,1.535,18.869,3.828,25.981,6.208c14.224,4.762,22.043,9.874,22.197,9.977
					c0.192,0.129,0.244,0.39,0.115,0.583c-0.081,0.121-0.215,0.187-0.351,0.187c-0.08,0-0.161-0.023-0.233-0.071
					c-0.152-0.102-7.92-5.178-22.054-9.902c-7.067-2.363-15.727-4.638-25.821-6.16c-9.975-1.506-21.352-2.277-33.981-1.674
					c-0.165,0.008-0.328,0.016-0.494,0.024h-0.001c-0.066,0.003-0.132,0.001-0.195-0.005c-0.179-0.016-0.323-0.145-0.36-0.318
					c-0.007-0.033-0.01-0.068-0.009-0.103C183.083,313.894,183.254,313.715,183.473,313.703z"/>
				<path id="XMLID_276_" style="fill:#FFD039;" d="M181.564,323.237c0.168-0.01,0.336-0.02,0.504-0.029
					c13.002-0.741,24.728-0.032,35.015,1.456c10.391,1.502,19.315,3.8,26.604,6.202c14.578,4.805,22.617,10.025,22.775,10.13
					c0.192,0.129,0.245,0.39,0.116,0.583c-0.08,0.122-0.214,0.188-0.351,0.188c-0.079,0-0.16-0.022-0.232-0.07
					c-0.156-0.103-8.142-5.289-22.629-10.058c-7.244-2.385-16.113-4.665-26.442-6.154c-10.184-1.471-21.788-2.173-34.653-1.448
					c-0.168,0.01-0.335,0.02-0.502,0.029c-0.001,0-0.001,0-0.002,0c-0.067,0.004-0.134,0.004-0.199,0.002
					c-0.187-0.005-0.338-0.131-0.383-0.306c-0.009-0.033-0.013-0.068-0.014-0.104C181.169,323.438,181.34,323.251,181.564,323.237z"
					/>
				<path id="XMLID_275_" style="fill:#FFD039;" d="M179.655,332.772c0.171-0.012,0.342-0.024,0.513-0.034
					c13.248-0.865,25.21-0.227,35.715,1.227c10.626,1.47,19.76,3.772,27.226,6.196c14.931,4.848,23.189,10.179,23.351,10.285
					c0.193,0.128,0.247,0.389,0.119,0.583c-0.08,0.122-0.215,0.189-0.352,0.189c-0.079,0-0.159-0.022-0.23-0.07
					c-0.161-0.106-8.365-5.399-23.206-10.213c-7.42-2.406-16.5-4.692-27.062-6.148c-10.394-1.435-22.225-2.067-35.325-1.222
					c-0.17,0.011-0.341,0.022-0.511,0.033l-0.001,0.001c-0.068,0.004-0.136,0.007-0.203,0.009c-0.194,0.005-0.354-0.118-0.406-0.293
					c-0.01-0.034-0.017-0.069-0.018-0.107C179.255,332.981,179.427,332.787,179.655,332.772z"/>
				<path id="XMLID_271_" style="fill:#FFD039;" d="M266.227,360.666c-0.079,0-0.158-0.022-0.229-0.069
					c-0.165-0.107-8.588-5.511-23.781-10.367c-7.597-2.429-16.886-4.72-27.683-6.144c-10.796-1.425-23.1-1.981-36.725-0.941
					c-0.24,0.019-0.434-0.156-0.452-0.388c-0.018-0.231,0.156-0.434,0.387-0.452c13.702-1.042,26.077-0.478,36.937,0.959
					c10.86,1.436,20.205,3.745,27.848,6.19c15.285,4.892,23.763,10.331,23.929,10.44c0.194,0.127,0.248,0.387,0.121,0.582
					C266.5,360.6,266.365,360.666,266.227,360.666z"/>
			</g>
			<g id="XMLID_170_">
				<path id="XMLID_264_" style="fill:#FFD039;" d="M281.257,285.069c0.083,0,0.167-0.024,0.24-0.074
					c0.131-0.091,6.807-4.621,19.176-9.128c6.185-2.254,13.793-4.502,22.719-6.186c8.926-1.685,19.169-2.806,30.622-2.806
					c0.151,0,0.298,0,0.45,0h0.001c0.232,0,0.42-0.188,0.421-0.419c0-0.232-0.188-0.421-0.42-0.422c-0.149,0-0.302,0-0.451,0
					c-11.525,0-21.834,1.13-30.817,2.829c-8.984,1.698-16.644,3.965-22.87,6.236c-12.454,4.545-19.178,9.112-19.31,9.204
					c-0.19,0.132-0.238,0.394-0.106,0.585C280.993,285.007,281.124,285.069,281.257,285.069z"/>
				<path id="XMLID_250_" style="fill:#FFD039;" d="M356.376,275.568c-0.153-0.002-0.309-0.004-0.461-0.005
					c-11.771-0.124-22.316,0.936-31.518,2.6c-9.218,1.666-17.088,3.938-23.492,6.231c-12.808,4.588-19.75,9.264-19.887,9.358
					c-0.191,0.132-0.24,0.393-0.108,0.585c0.082,0.119,0.214,0.183,0.347,0.183c0.083,0,0.166-0.024,0.239-0.074
					c0.135-0.093,7.029-4.732,19.751-9.283c6.361-2.275,14.181-4.528,23.34-6.181c9.135-1.649,19.605-2.7,31.294-2.579
					c0.154,0.001,0.304,0.003,0.459,0.005h0.001c0.064,0.001,0.124-0.011,0.18-0.032c0.15-0.056,0.26-0.198,0.268-0.368
					c0.002-0.033-0.001-0.065-0.007-0.098C356.746,275.718,356.579,275.571,356.376,275.568z"/>
				<path id="XMLID_248_" style="fill:#FFD039;" d="M358.285,285.103c-0.156-0.004-0.314-0.007-0.47-0.011
					c-12.018-0.247-22.799,0.743-32.217,2.371c-9.453,1.633-17.533,3.91-24.114,6.226c-13.162,4.631-20.324,9.417-20.465,9.513
					c-0.191,0.131-0.24,0.393-0.109,0.585c0.081,0.118,0.213,0.183,0.347,0.183c0.082,0,0.165-0.025,0.237-0.073
					c0.14-0.095,7.252-4.844,20.328-9.439c6.537-2.297,14.566-4.556,23.959-6.175c9.346-1.613,20.042-2.595,31.966-2.353
					c0.157,0.003,0.31,0.007,0.468,0.01h0.001c0.065,0.002,0.127-0.008,0.184-0.024c0.158-0.047,0.276-0.186,0.291-0.355
					c0.003-0.034,0.002-0.066-0.002-0.1C358.66,285.262,358.492,285.106,358.285,285.103z"/>
				<path id="XMLID_246_" style="fill:#FFD039;" d="M360.194,294.636c-0.159-0.005-0.319-0.01-0.479-0.015
					c-12.264-0.371-23.28,0.549-32.916,2.143c-9.688,1.6-17.98,3.882-24.737,6.22c-13.516,4.674-20.897,9.568-21.042,9.666
					c-0.191,0.131-0.242,0.393-0.111,0.585c0.081,0.119,0.214,0.184,0.349,0.184c0.081,0,0.163-0.023,0.235-0.072
					c0.145-0.098,7.475-4.955,20.903-9.593c6.714-2.319,14.953-4.583,24.58-6.171c9.555-1.577,20.478-2.488,32.638-2.126
					c0.16,0.005,0.316,0.009,0.477,0.015h0.001c0.065,0.002,0.128-0.005,0.188-0.019c0.165-0.036,0.291-0.172,0.314-0.343
					c0.005-0.033,0.005-0.067,0.002-0.101C360.574,294.806,360.405,294.643,360.194,294.636z"/>
				<path id="XMLID_216_" style="fill:#FFD039;" d="M362.103,304.17c-0.162-0.007-0.325-0.014-0.487-0.02
					c-12.51-0.495-23.763,0.355-33.616,1.913c-9.922,1.567-18.424,3.855-25.358,6.214c-13.87,4.718-21.471,9.721-21.62,9.821
					c-0.191,0.13-0.243,0.391-0.113,0.584c0.081,0.12,0.214,0.186,0.35,0.186c0.081,0,0.162-0.023,0.234-0.072
					c0.148-0.1,7.697-5.066,21.479-9.748c6.891-2.341,15.34-4.61,25.201-6.165c9.765-1.541,20.915-2.383,33.309-1.9
					c0.162,0.007,0.322,0.013,0.484,0.02h0.002c0.065,0.003,0.13-0.002,0.19-0.011c0.173-0.026,0.308-0.159,0.338-0.331
					c0.006-0.033,0.007-0.067,0.005-0.102C362.488,304.35,362.318,304.179,362.103,304.17z"/>
				<path id="XMLID_177_" style="fill:#FFD039;" d="M364.013,313.703c-0.165-0.008-0.331-0.016-0.495-0.024
					c-12.757-0.617-24.246,0.161-34.316,1.685c-10.156,1.535-18.869,3.828-25.982,6.208c-14.224,4.762-22.043,9.874-22.197,9.977
					c-0.192,0.129-0.244,0.39-0.115,0.583c0.082,0.121,0.215,0.187,0.351,0.187c0.08,0,0.161-0.023,0.233-0.071
					c0.152-0.102,7.92-5.178,22.055-9.902c7.067-2.363,15.726-4.638,25.821-6.16c9.974-1.506,21.352-2.277,33.98-1.674
					c0.165,0.008,0.329,0.016,0.494,0.024c0.001,0,0.001,0,0.001,0c0.066,0.003,0.132,0.001,0.195-0.005
					c0.18-0.016,0.322-0.145,0.36-0.318c0.007-0.033,0.011-0.068,0.01-0.103C364.402,313.894,364.232,313.715,364.013,313.703z"/>
				<path id="XMLID_174_" style="fill:#FFD039;" d="M365.922,323.237c-0.168-0.01-0.337-0.02-0.504-0.029
					c-13.002-0.741-24.729-0.032-35.016,1.456c-10.392,1.502-19.314,3.8-26.603,6.202c-14.578,4.805-22.617,10.025-22.774,10.13
					c-0.193,0.129-0.246,0.39-0.117,0.583c0.081,0.122,0.214,0.188,0.351,0.188c0.08,0,0.16-0.022,0.232-0.07
					c0.156-0.103,8.143-5.289,22.63-10.058c7.244-2.385,16.113-4.665,26.441-6.154c10.185-1.471,21.788-2.173,34.653-1.448
					c0.168,0.01,0.334,0.02,0.503,0.029h0.001c0.067,0.004,0.134,0.004,0.199,0.002c0.185-0.005,0.338-0.131,0.383-0.306
					c0.009-0.033,0.014-0.068,0.014-0.104C366.317,323.438,366.145,323.251,365.922,323.237z"/>
				<path id="XMLID_172_" style="fill:#FFD039;" d="M367.831,332.772c-0.171-0.012-0.342-0.024-0.513-0.034
					c-13.248-0.865-25.211-0.227-35.716,1.227c-10.625,1.47-19.76,3.772-27.225,6.196c-14.932,4.848-23.19,10.179-23.352,10.285
					c-0.193,0.128-0.247,0.389-0.119,0.583c0.081,0.122,0.215,0.189,0.352,0.189c0.079,0,0.159-0.022,0.232-0.07
					c0.16-0.106,8.364-5.399,23.205-10.213c7.421-2.406,16.5-4.692,27.063-6.148c10.395-1.435,22.225-2.067,35.325-1.222
					c0.17,0.011,0.34,0.022,0.511,0.033c0.001,0,0.001,0.001,0.002,0.001c0.067,0.004,0.136,0.007,0.202,0.009
					c0.193,0.005,0.354-0.118,0.406-0.293c0.011-0.034,0.017-0.069,0.018-0.107C368.231,332.981,368.059,332.787,367.831,332.772z"
					/>
				<path id="XMLID_171_" style="fill:#FFD039;" d="M281.258,360.666c0.079,0,0.158-0.022,0.23-0.069
					c0.165-0.107,8.587-5.511,23.78-10.367c7.598-2.429,16.887-4.72,27.684-6.144c10.796-1.425,23.1-1.981,36.725-0.941
					c0.239,0.019,0.434-0.156,0.451-0.388c0.018-0.231-0.156-0.434-0.388-0.452c-13.701-1.042-26.076-0.478-36.937,0.959
					c-10.859,1.436-20.205,3.745-27.848,6.19c-15.286,4.892-23.763,10.331-23.93,10.44c-0.194,0.127-0.248,0.387-0.121,0.582
					C280.986,360.6,281.121,360.666,281.258,360.666z"/>
			</g>
		</g>
	</g>
	<g id="XMLID_11_">
		
			<rect id="XMLID_31_" x="348.451" y="366.373" transform="matrix(0.5069 -0.862 0.862 0.5069 -141.8147 488.1983)" style="fill:#23828F;" width="14.723" height="3.364"/>
		<path id="XMLID_12_" style="fill:#103C42;" d="M331.35,409.651c-1.916-1.128-2.557-3.596-1.43-5.513l18.69-31.779
			c1.128-1.917,3.596-2.558,5.513-1.43c1.917,1.127,2.557,3.595,1.43,5.512l-18.69,31.78
			C335.734,410.138,333.267,410.778,331.35,409.651z"/>
		<path id="XMLID_4_" style="fill:#103C42;" d="M408.89,349.954c-10.24,17.412-32.656,23.226-50.068,12.985
			c-17.411-10.24-23.225-32.656-12.984-50.068c10.24-17.411,32.656-23.226,50.067-12.985
			C413.316,310.126,419.13,332.542,408.89,349.954z"/>
		<path id="XMLID_5_" style="fill:#66F3CD;" d="M405.708,348.083c-9.207,15.654-29.36,20.882-45.016,11.675
			c-15.654-9.207-20.881-29.361-11.674-45.016c9.206-15.654,29.36-20.882,45.015-11.675
			C409.688,312.274,414.915,332.429,405.708,348.083z"/>
		<path id="XMLID_8_" style="fill:#CDECEB;" d="M405.708,348.083c-9.207,15.654-29.36,20.882-45.016,11.675
			c-15.654-9.207-20.881-29.361-11.674-45.016c9.206-15.654,29.36-20.882,45.015-11.675
			C409.688,312.274,414.915,332.429,405.708,348.083z"/>
		<path id="XMLID_7_" style="fill:#9CF8F5;" d="M405.13,347.743c-9.019,15.335-28.762,20.455-44.097,11.436
			c-15.335-9.02-20.455-28.762-11.437-44.097c9.019-15.336,28.762-20.456,44.097-11.436
			C409.028,312.665,414.148,332.408,405.13,347.743z"/>
		<path id="XMLID_6_" style="fill:#E1F4F3;" d="M383.849,317.076c-2.96,5.032-9.438,6.712-14.47,3.753
			c-5.032-2.959-6.712-9.438-3.753-14.469c2.96-5.032,9.437-6.712,14.47-3.753C385.127,305.566,386.808,312.045,383.849,317.076z"/>
		<path id="XMLID_9_" style="fill:#F5FBFB;" d="M375.503,310.417c-1.114,1.895-3.555,2.527-5.449,1.413
			c-1.895-1.114-2.528-3.555-1.414-5.449c1.115-1.895,3.555-2.528,5.45-1.414C375.984,306.082,376.617,308.522,375.503,310.417z"/>
		<path id="XMLID_10_" style="fill:#CDECEB;" d="M335.824,396.809L335.824,396.809c-0.224-0.132-0.299-0.422-0.167-0.646
			l9.775-16.622c0.132-0.224,0.423-0.299,0.647-0.168l0,0c0.224,0.132,0.299,0.423,0.167,0.647l-9.775,16.622
			C336.339,396.865,336.048,396.94,335.824,396.809z"/>
		<path id="XMLID_14_" style="fill:#CDECEB;" d="M346.451,378.74L346.451,378.74c-0.224-0.131-0.3-0.422-0.168-0.646l0.149-0.253
			c0.131-0.224,0.422-0.3,0.646-0.168l0,0c0.224,0.132,0.299,0.423,0.168,0.647l-0.149,0.253
			C346.965,378.797,346.675,378.872,346.451,378.74z"/>
	</g>
	<g id="XMLID_21_">
		<polygon id="XMLID_22_" style="fill:#9CF8F5;" points="365.321,190.114 340.106,182.703 378.793,179.628 		"/>
		<polygon id="XMLID_23_" style="fill:#4F9593;" points="366.387,189.285 369.712,198.22 363.108,195.648 365.301,192.234 
			340.106,182.703 		"/>
		<polygon id="XMLID_24_" style="fill:#9CF8F5;" points="340.106,182.703 355.299,207.808 365.301,192.234 		"/>
	</g>
	<g id="XMLID_28_">
		<g id="XMLID_1095_">
			<path id="XMLID_1194_" style="fill:#FFE837;" d="M377.952,196.495c-0.228,0-0.438-0.093-0.597-0.244
				c-0.152-0.16-0.244-0.37-0.244-0.597c0-0.219,0.092-0.438,0.244-0.597c0.31-0.311,0.874-0.311,1.185,0
				c0.16,0.16,0.253,0.379,0.253,0.597c0,0.218-0.093,0.438-0.253,0.597C378.39,196.402,378.171,196.495,377.952,196.495z"/>
			<path id="XMLID_1097_" style="fill:#FFE837;" d="M209.246,399.968c-0.463-0.008-0.825-0.395-0.816-0.857l0,0
				c0.017-0.471,0.396-0.832,0.866-0.824l0,0c0.462,0.017,0.832,0.403,0.816,0.866l0,0c-0.009,0.454-0.387,0.815-0.841,0.815l0,0
				C209.263,399.968,209.254,399.968,209.246,399.968z M213.527,399.909c-0.463,0.025-0.858-0.328-0.883-0.79l0,0
				c-0.025-0.463,0.328-0.858,0.79-0.884l0,0c0.462-0.025,0.858,0.328,0.883,0.791l0,0
				C214.342,399.488,213.989,399.884,213.527,399.909L213.527,399.909L213.527,399.909z M204.991,399.699
				c-0.471-0.051-0.799-0.463-0.757-0.925l0,0c0.05-0.463,0.463-0.8,0.925-0.758l0,0c0.462,0.051,0.799,0.463,0.749,0.926l0,0
				c-0.042,0.438-0.413,0.757-0.833,0.757l0,0C205.041,399.699,205.016,399.699,204.991,399.699z M216.823,398.782
				c-0.059-0.462,0.261-0.883,0.723-0.95l0,0c0.455-0.067,0.883,0.252,0.942,0.715l0,0c0.067,0.462-0.253,0.883-0.707,0.95l0,0
				c-0.042,0.009-0.084,0.009-0.118,0.009l0,0C217.252,399.506,216.891,399.203,216.823,398.782z M200.76,399.11L200.76,399.11
				L200.76,399.11c-0.455-0.076-0.765-0.513-0.69-0.976l0,0c0.085-0.454,0.522-0.765,0.976-0.682l0,0
				c0.462,0.076,0.765,0.514,0.689,0.976l0,0c-0.076,0.403-0.429,0.69-0.833,0.69l0,0
				C200.852,399.119,200.811,399.119,200.76,399.11z M220.97,398.084c-0.11-0.454,0.177-0.908,0.631-1.009l0,0
				c0.454-0.109,0.899,0.176,1.009,0.631l0,0c0.101,0.445-0.177,0.899-0.631,1.009l0,0l0,0l0,0
				c-0.067,0.008-0.126,0.018-0.193,0.018l0,0C221.407,398.732,221.062,398.471,220.97,398.084z M196.589,398.253
				c-0.455-0.109-0.732-0.563-0.623-1.017l0,0c0.101-0.454,0.555-0.733,1.009-0.623l0,0c0.454,0.109,0.731,0.564,0.622,1.018l0,0
				c-0.093,0.379-0.438,0.639-0.816,0.639l0,0C196.715,398.269,196.647,398.261,196.589,398.253z M225.031,397.024
				c-0.143-0.438,0.101-0.916,0.538-1.06l0,0c0.446-0.151,0.917,0.093,1.06,0.538l0,0c0.151,0.438-0.093,0.917-0.53,1.06l0,0
				c-0.092,0.025-0.177,0.042-0.269,0.042l0,0C225.477,397.604,225.149,397.378,225.031,397.024z M192.476,397.143L192.476,397.143
				L192.476,397.143c-0.446-0.135-0.698-0.605-0.563-1.052l0,0c0.135-0.446,0.597-0.698,1.043-0.563l0,0
				c0.446,0.135,0.698,0.605,0.563,1.052l0,0c-0.109,0.361-0.438,0.597-0.799,0.597l0,0
				C192.636,397.176,192.56,397.168,192.476,397.143z M228.993,395.612c-0.186-0.43,0.017-0.926,0.445-1.103l0,0
				c0.429-0.185,0.925,0.018,1.102,0.438l0,0c0.185,0.429-0.017,0.925-0.446,1.11l0,0c-0.1,0.042-0.218,0.067-0.328,0.067l0,0
				C229.438,396.125,229.127,395.932,228.993,395.612z M188.431,395.814c0,0,0,0,0.008,0l0,0c-0.446-0.151-0.673-0.631-0.513-1.067
				l0,0c0.151-0.439,0.639-0.673,1.068-0.514h0.008c0.437,0.16,0.664,0.639,0.504,1.076l0,0c-0.126,0.346-0.445,0.556-0.79,0.556
				l0,0C188.624,395.864,188.523,395.847,188.431,395.814z M184.47,394.3c-0.438-0.177-0.639-0.665-0.462-1.093l0,0
				c0.169-0.429,0.665-0.64,1.093-0.463l0,0c0.429,0.177,0.639,0.664,0.462,1.093l0,0c-0.135,0.328-0.446,0.53-0.782,0.53l0,0
				C184.68,394.367,184.57,394.342,184.47,394.3z M232.819,393.862c-0.219-0.403-0.059-0.917,0.345-1.136h0.008
				c0.404-0.21,0.917-0.058,1.136,0.354l0,0c0.21,0.412,0.059,0.917-0.353,1.136l0,0c-0.126,0.067-0.261,0.102-0.395,0.102l0,0
				C233.257,394.317,232.971,394.148,232.819,393.862z M180.567,392.617L180.567,392.617L180.567,392.617
				c-0.42-0.192-0.605-0.689-0.412-1.11l0,0c0.193-0.429,0.69-0.613,1.11-0.42l0,0c0.429,0.193,0.614,0.689,0.42,1.118l0,0
				c-0.143,0.304-0.446,0.488-0.765,0.488l0,0C180.803,392.693,180.685,392.669,180.567,392.617z M236.486,391.818
				c-0.244-0.395-0.126-0.916,0.27-1.16l0,0c0.387-0.244,0.908-0.126,1.152,0.261l0,0c0.253,0.396,0.135,0.917-0.261,1.161l0,0
				c-0.143,0.092-0.294,0.135-0.445,0.135l0,0C236.923,392.215,236.646,392.07,236.486,391.818z M176.749,390.784
				c-0.421-0.202-0.589-0.706-0.379-1.126l0,0c0.211-0.413,0.715-0.581,1.127-0.371l0,0c0.421,0.202,0.588,0.706,0.378,1.127l0,0
				c-0.151,0.295-0.445,0.463-0.757,0.463l0,0C176.993,390.877,176.867,390.843,176.749,390.784z M239.993,389.498
				c-0.269-0.371-0.194-0.9,0.185-1.169l0,0c0.37-0.278,0.9-0.194,1.177,0.177l0,0c0.27,0.378,0.193,0.898-0.185,1.177l0,0
				c-0.152,0.109-0.328,0.16-0.497,0.16l0,0C240.414,389.843,240.161,389.725,239.993,389.498z M172.99,388.825
				c-0.412-0.219-0.563-0.732-0.336-1.145l0,0c0.219-0.403,0.732-0.555,1.136-0.336l0,0c0.412,0.227,0.563,0.732,0.345,1.144l0,0
				c-0.16,0.277-0.446,0.438-0.74,0.438l0,0C173.25,388.926,173.116,388.893,172.99,388.825z M243.34,386.949
				c-0.303-0.353-0.252-0.883,0.101-1.186l0,0c0.362-0.294,0.892-0.252,1.186,0.11l0,0c0.303,0.354,0.252,0.883-0.101,1.186l0,0
				c-0.16,0.126-0.354,0.193-0.539,0.193l0,0C243.744,387.252,243.5,387.151,243.34,386.949z M246.52,384.191
				c-0.32-0.337-0.303-0.867,0.034-1.186l0,0c0.344-0.319,0.874-0.303,1.194,0.042l0,0c0.311,0.337,0.295,0.866-0.042,1.186l0,0
				c-0.16,0.15-0.371,0.227-0.572,0.227l0,0C246.906,384.46,246.679,384.376,246.52,384.191z M249.539,381.272
				c-0.337-0.328-0.345-0.857-0.017-1.194l0,0c0.319-0.336,0.85-0.345,1.185-0.017l0,0c0.336,0.319,0.345,0.85,0.025,1.186l0,0
				c-0.168,0.167-0.387,0.26-0.605,0.26l0,0C249.917,381.508,249.707,381.424,249.539,381.272z M252.414,378.194
				c-0.344-0.303-0.378-0.832-0.075-1.186l0,0c0.311-0.345,0.841-0.379,1.186-0.076l0,0c0.353,0.312,0.387,0.841,0.075,1.186l0,0
				c-0.169,0.194-0.396,0.286-0.631,0.286l0,0C252.776,378.404,252.574,378.338,252.414,378.194z M255.156,374.998
				c-0.361-0.285-0.42-0.815-0.126-1.177l0,0c0.294-0.362,0.824-0.42,1.186-0.126l0,0c0.354,0.294,0.412,0.824,0.118,1.186l0,0l0,0
				l0,0c-0.169,0.202-0.404,0.312-0.648,0.312l0,0C255.501,375.192,255.308,375.125,255.156,374.998z M257.764,371.701
				c-0.37-0.277-0.446-0.807-0.169-1.177l0,0c0.278-0.37,0.808-0.445,1.178-0.168l0,0c0.379,0.277,0.446,0.808,0.168,1.177l0,0
				c-0.159,0.22-0.42,0.337-0.673,0.337l0,0C258.091,371.87,257.915,371.82,257.764,371.701z M260.261,368.313
				c-0.378-0.269-0.471-0.79-0.21-1.169l0,0c0.27-0.379,0.799-0.471,1.178-0.21l0,0c0.378,0.268,0.471,0.791,0.202,1.178l0,0l0,0
				l0,0c-0.16,0.227-0.421,0.353-0.69,0.353l0,0C260.572,368.464,260.404,368.413,260.261,368.313z M262.65,364.848
				c-0.388-0.261-0.497-0.782-0.236-1.169l0,0c0.252-0.387,0.773-0.496,1.16-0.235l0,0c0.388,0.252,0.497,0.773,0.236,1.161l0,0
				c-0.16,0.252-0.421,0.377-0.698,0.377l0,0C262.952,364.981,262.793,364.94,262.65,364.848z M264.938,361.315
				c-0.387-0.244-0.514-0.766-0.261-1.16l0,0c0.243-0.397,0.766-0.514,1.152-0.27l0,0c0.395,0.252,0.521,0.766,0.269,1.16l0,0
				c-0.159,0.252-0.429,0.396-0.715,0.396l0,0C265.231,361.441,265.08,361.399,264.938,361.315z M267.149,357.733
				c-0.404-0.244-0.538-0.758-0.303-1.152l0,0c0.243-0.404,0.757-0.539,1.16-0.304l0,0c0.395,0.244,0.53,0.758,0.286,1.161l0,0
				c-0.151,0.261-0.429,0.412-0.724,0.412l0,0C267.427,357.851,267.284,357.809,267.149,357.733z M269.269,354.092
				c-0.404-0.228-0.547-0.74-0.319-1.145l0,0c0.227-0.404,0.739-0.547,1.144-0.319l0,0c0.403,0.227,0.547,0.74,0.319,1.144l0,0l0,0
				l0,0c-0.151,0.277-0.436,0.429-0.731,0.429l0,0C269.538,354.2,269.395,354.167,269.269,354.092z M271.32,350.416
				c-0.412-0.219-0.563-0.731-0.345-1.143v0.008c0.228-0.411,0.731-0.564,1.143-0.344l0,0c0.404,0.218,0.556,0.73,0.337,1.135l0,0
				c0,0,0,0,0,0.008l0,0c-0.151,0.277-0.438,0.439-0.74,0.439l0,0C271.581,350.518,271.447,350.483,271.32,350.416z
				 M273.306,346.699c-0.421-0.211-0.58-0.716-0.362-1.136l0,0c0.211-0.412,0.724-0.572,1.136-0.354l0,0
				c0.412,0.21,0.572,0.724,0.353,1.136l0,0c-0.152,0.286-0.438,0.445-0.749,0.445l0,0
				C273.558,346.791,273.423,346.767,273.306,346.699z M275.223,342.956c-0.421-0.21-0.589-0.715-0.379-1.127l0,0
				c0.211-0.42,0.716-0.589,1.127-0.378l0,0c0.421,0.202,0.589,0.714,0.379,1.126l0,0l0,0l0,0c-0.151,0.295-0.446,0.463-0.757,0.463
				l0,0C275.467,343.04,275.34,343.016,275.223,342.956z M277.09,339.18c-0.421-0.202-0.598-0.706-0.395-1.118l0,0
				c0.202-0.421,0.706-0.598,1.127-0.396l0,0c0.412,0.202,0.589,0.706,0.387,1.119l0,0l0,0l0,0
				c-0.143,0.302-0.445,0.479-0.756,0.479l0,0C277.325,339.265,277.208,339.239,277.09,339.18z M278.898,335.379
				c-0.421-0.193-0.598-0.698-0.404-1.118l0,0c0.202-0.421,0.698-0.598,1.118-0.404l0,0c0.421,0.193,0.606,0.698,0.404,1.118l0,0
				l0,0l0,0c-0.143,0.304-0.446,0.488-0.757,0.488l0,0C279.134,335.463,279.016,335.438,278.898,335.379z M280.673,331.56
				c-0.43-0.193-0.614-0.689-0.421-1.118l0,0c0.193-0.421,0.689-0.607,1.11-0.412l0,0c0.42,0.185,0.614,0.689,0.42,1.11l0,0
				c-0.143,0.311-0.445,0.496-0.766,0.496l0,0C280.899,331.637,280.782,331.61,280.673,331.56z M282.396,327.717
				c-0.429-0.185-0.622-0.681-0.429-1.11l0,0c0.185-0.42,0.681-0.613,1.109-0.429l0,0c0.421,0.185,0.615,0.682,0.43,1.11l0,0
				c-0.144,0.312-0.455,0.505-0.774,0.505l0,0C282.623,327.793,282.506,327.768,282.396,327.717z M284.079,323.857
				c-0.429-0.177-0.623-0.673-0.439-1.102l0,0c0.186-0.429,0.673-0.622,1.103-0.438l0,0c0.429,0.177,0.622,0.673,0.445,1.102l0,0
				c-0.143,0.319-0.454,0.505-0.773,0.505l0,0C284.297,323.924,284.189,323.907,284.079,323.857z M285.735,319.988
				c-0.429-0.177-0.639-0.673-0.454-1.102l0,0c0.177-0.429,0.673-0.631,1.103-0.454l0,0c0.429,0.185,0.63,0.672,0.444,1.101l0,0
				c-0.135,0.32-0.444,0.521-0.773,0.521l0,0C285.945,320.055,285.836,320.03,285.735,319.988z M287.35,316.103
				c-0.429-0.177-0.639-0.674-0.462-1.102l0,0c0.177-0.429,0.673-0.631,1.102-0.454l0,0c0.43,0.168,0.631,0.664,0.454,1.093l0,0l0,0
				l0,0c-0.126,0.329-0.445,0.522-0.773,0.522l0,0C287.56,316.161,287.451,316.145,287.35,316.103z M288.939,312.2
				c-0.437-0.177-0.647-0.664-0.471-1.093l0,0c0.177-0.438,0.664-0.64,1.093-0.471l0,0c0.429,0.177,0.64,0.664,0.472,1.093l0,0l0,0
				l0,0c-0.135,0.328-0.446,0.53-0.782,0.53l0,0C289.142,312.26,289.04,312.242,288.939,312.2z M290.495,308.29
				c-0.428-0.168-0.647-0.656-0.471-1.094l0,0c0.168-0.429,0.656-0.647,1.085-0.471l0,0c0.438,0.168,0.647,0.656,0.479,1.085l0,0
				c-0.135,0.337-0.446,0.538-0.782,0.538l0,0C290.706,308.349,290.597,308.324,290.495,308.29z M292.035,304.371
				c-0.439-0.169-0.648-0.656-0.48-1.094l0,0c0.16-0.43,0.648-0.647,1.085-0.479l0,0c0.429,0.169,0.648,0.656,0.48,1.085l0,0l0,0
				l0,0c-0.127,0.336-0.446,0.538-0.791,0.538l0,0C292.236,304.421,292.127,304.404,292.035,304.371z M293.54,300.435
				c-0.429-0.168-0.647-0.647-0.48-1.085l0,0c0.16-0.429,0.649-0.648,1.085-0.487l0,0c0.429,0.168,0.648,0.655,0.488,1.085l0,0
				c-0.135,0.336-0.455,0.546-0.791,0.546l0,0C293.742,300.493,293.642,300.477,293.54,300.435z M295.036,296.499
				c-0.437-0.16-0.655-0.647-0.496-1.085l0,0c0.169-0.429,0.648-0.656,1.085-0.488l0,0c0.43,0.16,0.656,0.648,0.488,1.085l0,0
				c-0.126,0.337-0.446,0.539-0.782,0.539l0,0C295.23,296.55,295.13,296.532,295.036,296.499z M296.5,292.555
				c-0.429-0.168-0.648-0.656-0.487-1.085l0,0c0.168-0.438,0.656-0.656,1.085-0.487l0,0c0.438,0.159,0.655,0.647,0.487,1.085l0,0
				l0,0l0,0c-0.126,0.336-0.446,0.537-0.782,0.537l0,0C296.702,292.604,296.602,292.589,296.5,292.555z M298.048,288.636
				c-0.429-0.177-0.631-0.673-0.445-1.103h0.008c0.177-0.429,0.673-0.621,1.102-0.445l0,0c0.421,0.186,0.622,0.682,0.438,1.11l0,0
				c-0.135,0.319-0.445,0.505-0.773,0.505l0,0C298.267,288.703,298.157,288.685,298.048,288.636z M299.755,284.792
				c-0.421-0.202-0.597-0.706-0.395-1.119l0,0c0.21-0.42,0.706-0.597,1.126-0.395l0,0c0.421,0.202,0.598,0.706,0.396,1.127l0,0
				c0,0,0,0,0-0.009l0,0c-0.151,0.303-0.445,0.479-0.766,0.479l0,0C299.999,284.876,299.872,284.851,299.755,284.792z
				 M301.639,281.033c-0.403-0.228-0.555-0.732-0.327-1.145l0,0c0.218-0.403,0.73-0.555,1.135-0.327l0,0
				c0.412,0.218,0.564,0.732,0.337,1.135l0,0c-0.152,0.286-0.446,0.438-0.741,0.438l0,0
				C301.908,281.134,301.765,281.101,301.639,281.033z M303.725,277.374c-0.395-0.244-0.521-0.765-0.268-1.152l0,0
				c0.243-0.396,0.756-0.521,1.152-0.269l0,0c0.395,0.244,0.521,0.757,0.277,1.152l0,0c-0.169,0.261-0.438,0.395-0.724,0.395l0,0
				C304.011,277.5,303.859,277.467,303.725,277.374z M306.013,273.851c-0.379-0.27-0.464-0.799-0.194-1.178l0,0
				c0.27-0.379,0.791-0.463,1.17-0.193l0,0c0.378,0.268,0.471,0.799,0.201,1.177l0,0l0,0l0,0c-0.169,0.227-0.429,0.346-0.689,0.346
				l0,0C306.332,274.002,306.163,273.951,306.013,273.851z M308.526,270.478c-0.354-0.295-0.403-0.825-0.109-1.186l0,0
				c0.295-0.352,0.825-0.403,1.186-0.108l0,0c0.353,0.294,0.403,0.823,0.108,1.185l0,0c-0.168,0.202-0.402,0.303-0.646,0.303l0,0
				C308.881,270.671,308.686,270.603,308.526,270.478z M311.277,267.299c-0.328-0.328-0.337-0.858-0.017-1.194l0,0
				c0.32-0.328,0.85-0.345,1.185-0.017l0,0c0.337,0.319,0.346,0.85,0.025,1.186l0,0c-0.168,0.169-0.387,0.262-0.605,0.262l0,0
				C311.655,267.535,311.445,267.45,311.277,267.299z M314.27,264.338c-0.311-0.344-0.268-0.883,0.076-1.185l0,0
				c0.354-0.303,0.883-0.27,1.186,0.075l0,0c0.312,0.354,0.277,0.883-0.076,1.187l0,0c-0.159,0.143-0.353,0.21-0.555,0.21l0,0
				C314.666,264.625,314.439,264.532,314.27,264.338z M317.501,261.647c-0.27-0.378-0.194-0.9,0.184-1.178l0,0
				c0.369-0.277,0.9-0.193,1.169,0.177l0,0c0.277,0.379,0.202,0.9-0.177,1.178l0,0c-0.151,0.109-0.328,0.168-0.496,0.168l0,0
				C317.921,261.992,317.668,261.874,317.501,261.647z M320.957,259.25c-0.244-0.403-0.109-0.916,0.285-1.16v0.008
				c0.397-0.243,0.917-0.117,1.152,0.278l0,0c0.244,0.395,0.118,0.916-0.285,1.16l0,0c-0.135,0.075-0.286,0.118-0.429,0.118l0,0
				C321.395,259.654,321.117,259.512,320.957,259.25z M399.97,258.199L399.97,258.199L399.97,258.199
				c-0.471-0.017-0.833-0.395-0.824-0.857l0,0c0.009-0.463,0.387-0.833,0.857-0.825l0,0c0.463,0.009,0.833,0.396,0.824,0.858l0,0
				c-0.008,0.454-0.387,0.824-0.841,0.824l0,0C399.977,258.199,399.97,258.199,399.97,258.199z M403.351,257.299
				c-0.042-0.462,0.294-0.874,0.757-0.916l0,0c0.462-0.042,0.875,0.294,0.917,0.757l0,0c0.041,0.462-0.295,0.875-0.757,0.916l0,0
				c-0.025,0.009-0.051,0.009-0.076,0.009l0,0C403.763,258.065,403.393,257.736,403.351,257.299z M395.705,257.955L395.705,257.955
				L395.705,257.955c-0.462-0.042-0.807-0.454-0.765-0.916l0,0c0.042-0.463,0.454-0.8,0.917-0.766l0,0
				c0.463,0.042,0.799,0.454,0.757,0.916l0,0c-0.034,0.438-0.403,0.766-0.833,0.766l0,0
				C395.757,257.955,395.731,257.955,395.705,257.955z M324.615,257.173c-0.201-0.42-0.025-0.925,0.387-1.126l0,0
				c0.421-0.202,0.925-0.025,1.127,0.387l0,0c0.202,0.42,0.025,0.925-0.387,1.127l0,0l0,0l0,0c-0.118,0.059-0.244,0.083-0.37,0.083
				l0,0C325.06,257.644,324.767,257.468,324.615,257.173z M391.484,257.477c-0.463-0.06-0.783-0.488-0.724-0.942l0,0
				c0.059-0.463,0.487-0.791,0.941-0.724l0,0c0.463,0.06,0.791,0.48,0.724,0.942l0,0c-0.051,0.42-0.412,0.732-0.824,0.732l0,0
				C391.56,257.484,391.526,257.477,391.484,257.477z M407.514,256.702c-0.126-0.445,0.135-0.908,0.58-1.043l0,0
				c0.446-0.126,0.908,0.135,1.034,0.58l0,0c0.135,0.446-0.126,0.908-0.571,1.043l0,0c-0.076,0.017-0.151,0.034-0.236,0.034l0,0
				C407.959,257.316,407.623,257.072,407.514,256.702z M387.295,256.862c-0.454-0.076-0.773-0.505-0.697-0.959l0,0
				c0.076-0.463,0.505-0.773,0.959-0.707l0,0c0.462,0.076,0.773,0.505,0.706,0.968l0,0c-0.067,0.412-0.429,0.706-0.833,0.706l0,0
				C387.389,256.87,387.347,256.87,387.295,256.862z M383.132,256.172L383.132,256.172L383.132,256.172
				c-0.462-0.075-0.765-0.513-0.688-0.967l0,0c0.075-0.462,0.513-0.765,0.975-0.689h-0.009c0.463,0.075,0.773,0.514,0.689,0.968l0,0
				c-0.067,0.411-0.42,0.706-0.823,0.706l0,0C383.226,256.19,383.184,256.181,383.132,256.172z M328.45,255.432
				c-0.168-0.428,0.05-0.916,0.488-1.084l0,0c0.429-0.16,0.916,0.051,1.085,0.487l0,0c0.159,0.438-0.059,0.917-0.488,1.085l0,0l0,0
				l0,0c-0.101,0.042-0.202,0.06-0.303,0.06l0,0C328.896,255.98,328.577,255.769,328.45,255.432z M411.45,255.23
				c-0.253-0.395-0.135-0.917,0.252-1.161l0,0c0.395-0.252,0.908-0.143,1.16,0.253l0,0c0.252,0.387,0.143,0.908-0.252,1.161l0,0
				c-0.143,0.092-0.295,0.134-0.454,0.134l0,0C411.879,255.617,411.609,255.474,411.45,255.23z M378.978,255.458
				c-0.454-0.076-0.766-0.514-0.682-0.968l0,0c0.076-0.463,0.513-0.766,0.967-0.689l0,0c0.463,0.084,0.766,0.513,0.69,0.976l0,0
				c-0.076,0.403-0.429,0.697-0.833,0.697l0,0C379.079,255.474,379.028,255.466,378.978,255.458z M374.832,254.76L374.832,254.76
				L374.832,254.76c-0.454-0.076-0.766-0.514-0.689-0.968l0,0c0.075-0.462,0.504-0.773,0.967-0.698l0,0
				c0.454,0.076,0.766,0.514,0.689,0.968l0,0c-0.067,0.412-0.421,0.706-0.823,0.706l0,0
				C374.924,254.768,374.882,254.76,374.832,254.76z M332.42,254.036c-0.135-0.445,0.126-0.908,0.572-1.034l0,0
				c0.445-0.135,0.916,0.126,1.042,0.571l0,0c0.127,0.446-0.126,0.917-0.571,1.043l0,0c-0.084,0.025-0.16,0.034-0.236,0.034l0,0
				C332.857,254.65,332.52,254.406,332.42,254.036z M370.685,254.095c-0.463-0.075-0.773-0.504-0.706-0.958l0,0
				c0.075-0.463,0.505-0.773,0.958-0.706l0,0c0.463,0.066,0.774,0.496,0.707,0.958l0,0c-0.059,0.412-0.42,0.715-0.833,0.715l0,0
				C370.77,254.104,370.727,254.095,370.685,254.095z M336.49,252.977c-0.093-0.454,0.202-0.9,0.656-0.992l0,0
				c0.454-0.093,0.899,0.193,0.992,0.656l0,0c0.093,0.453-0.201,0.899-0.656,0.992l0,0c-0.059,0.008-0.118,0.017-0.168,0.017l0,0
				C336.92,253.649,336.566,253.371,336.49,252.977z M366.54,253.498c0,0,0,0-0.009,0l0,0c-0.454-0.059-0.782-0.488-0.715-0.942l0,0
				c0.059-0.462,0.48-0.79,0.941-0.724l0,0c0.454,0.06,0.783,0.48,0.724,0.942l0,0c-0.059,0.421-0.42,0.732-0.833,0.732l0,0
				C366.606,253.506,366.573,253.506,366.54,253.498z M362.376,253.002L362.376,253.002L362.376,253.002
				c-0.462-0.051-0.799-0.463-0.748-0.926l0,0c0.051-0.462,0.463-0.798,0.925-0.748l0,0c0.463,0.051,0.8,0.463,0.749,0.925l0,0
				c-0.042,0.43-0.412,0.749-0.833,0.749l0,0C362.435,253.002,362.41,253.002,362.376,253.002z M340.629,252.22
				c-0.06-0.463,0.26-0.884,0.723-0.941l0,0c0.462-0.06,0.883,0.26,0.95,0.723l0,0c0.059,0.462-0.269,0.883-0.732,0.941l0,0
				c0,0,0,0,0.01,0l0,0c-0.043,0.009-0.077,0.009-0.119,0.009l0,0C341.049,252.951,340.686,252.648,340.629,252.22z
				 M414.721,252.598c-0.37-0.277-0.445-0.807-0.168-1.177l0,0c0.277-0.37,0.808-0.446,1.178-0.16l0,0
				c0.369,0.277,0.445,0.808,0.168,1.178l0,0c-0.168,0.219-0.42,0.328-0.673,0.328l0,0
				C415.049,252.767,414.872,252.716,414.721,252.598z M358.213,252.623c-0.462-0.033-0.815-0.437-0.781-0.9l0,0
				c0.033-0.462,0.438-0.807,0.9-0.773l0,0c0.463,0.034,0.816,0.438,0.782,0.9l0,0c-0.033,0.437-0.403,0.782-0.841,0.782l0,0
				C358.247,252.632,358.23,252.632,358.213,252.623z M344.816,251.749c-0.034-0.463,0.311-0.867,0.781-0.891v-0.009
				c0.455-0.024,0.858,0.32,0.893,0.782l0,0c0.033,0.471-0.319,0.866-0.783,0.899l0,0l0,0l0,0c-0.017,0-0.041,0-0.058,0l0,0
				C345.211,252.53,344.842,252.194,344.816,251.749z M354.042,252.405L354.042,252.405L354.042,252.405
				c-0.463-0.018-0.832-0.404-0.815-0.867l0,0c0.017-0.471,0.404-0.833,0.866-0.815h0.008c0.463,0.016,0.825,0.403,0.808,0.866l0,0
				c-0.017,0.454-0.387,0.816-0.841,0.816l0,0C354.06,252.405,354.051,252.405,354.042,252.405z M349.021,251.53
				c-0.009-0.463,0.361-0.841,0.824-0.849l0,0c0.463-0.009,0.85,0.361,0.85,0.831l0,0c0.008,0.464-0.362,0.841-0.825,0.851l0,0
				c-0.008,0-0.008,0-0.016,0l0,0C349.4,252.363,349.021,251.992,349.021,251.53z M416.907,249.024
				c-0.436-0.16-0.655-0.647-0.496-1.076l0,0c0.16-0.438,0.639-0.664,1.077-0.505l0,0c0.437,0.16,0.664,0.648,0.504,1.085l0,0
				c-0.126,0.337-0.454,0.547-0.79,0.547l0,0C417.102,249.075,417.009,249.058,416.907,249.024z M418.102,244.995
				c-0.463-0.075-0.773-0.504-0.706-0.966l0,0c0.075-0.454,0.505-0.774,0.967-0.698l0,0c0.454,0.076,0.766,0.504,0.698,0.967l0,0
				c0,0,0,0,0-0.008l0,0c-0.067,0.42-0.42,0.715-0.833,0.715l0,0C418.186,245.004,418.145,245.004,418.102,244.995z
				 M418.606,240.816c-0.462-0.034-0.808-0.429-0.782-0.892l0,0c0.033-0.462,0.429-0.815,0.899-0.782l0,0
				c0.463,0.025,0.808,0.429,0.782,0.891l0,0l0,0l0,0c-0.033,0.446-0.403,0.782-0.841,0.782l0,0
				C418.648,240.816,418.632,240.816,418.606,240.816z M417.942,235.778c-0.009-0.463,0.361-0.841,0.833-0.85l0,0
				c0.462-0.008,0.841,0.362,0.849,0.833l0,0c0,0.462-0.37,0.841-0.833,0.85l0,0h-0.008l0,0
				C418.321,236.611,417.942,236.241,417.942,235.778z M417.715,231.657c-0.05-0.462,0.286-0.874,0.749-0.925l0,0
				c0.462-0.043,0.875,0.294,0.925,0.757l0,0l0,0l0,0c0.042,0.462-0.294,0.874-0.757,0.917l0,0
				c-0.025,0.008-0.051,0.008-0.084,0.008l0,0C418.119,232.414,417.758,232.086,417.715,231.657z M417.102,227.586
				c-0.093-0.454,0.201-0.899,0.656-0.992l0,0c0.462-0.093,0.898,0.202,0.991,0.656l0,0c0.094,0.454-0.201,0.899-0.655,0.992l0,0
				c-0.06,0.008-0.109,0.017-0.169,0.017l0,0C417.53,228.26,417.185,227.982,417.102,227.586z M416.075,223.601
				c-0.144-0.438,0.101-0.908,0.546-1.051l0,0c0.439-0.143,0.909,0.101,1.052,0.546l0,0l0,0l0,0
				c0.143,0.438-0.101,0.917-0.546,1.051l0,0c-0.085,0.034-0.169,0.042-0.253,0.042l0,0
				C416.52,224.189,416.185,223.962,416.075,223.601z M414.603,219.773c-0.193-0.42-0.009-0.917,0.411-1.11l0,0
				c0.421-0.193,0.926-0.008,1.119,0.412l0,0l0,0l0,0c0.193,0.429,0,0.925-0.421,1.119l0,0c-0.109,0.05-0.227,0.076-0.345,0.076l0,0
				C415.049,220.27,414.737,220.085,414.603,219.773z M412.678,216.149c-0.244-0.395-0.118-0.908,0.277-1.152l0,0
				c0.403-0.244,0.917-0.118,1.16,0.277l0,0c0.244,0.396,0.118,0.918-0.277,1.161l0,0c-0.143,0.076-0.295,0.118-0.438,0.118l0,0
				C413.114,216.553,412.837,216.41,412.678,216.149z M410.331,212.785c-0.286-0.361-0.228-0.892,0.134-1.177l0,0
				c0.371-0.294,0.893-0.227,1.187,0.135l0,0l0,0l0,0c0.285,0.361,0.227,0.892-0.144,1.186l0,0c-0.15,0.117-0.336,0.177-0.521,0.177
				l0,0C410.743,213.105,410.499,212.995,410.331,212.785z M407.598,209.724c-0.337-0.328-0.337-0.858-0.009-1.186l0,0
				c0.328-0.328,0.866-0.336,1.194-0.009l0,0c0.328,0.328,0.328,0.867,0,1.194l0,0c-0.168,0.168-0.378,0.244-0.598,0.244l0,0
				C407.976,209.968,407.757,209.892,407.598,209.724z M404.52,206.982h0.009c-0.371-0.286-0.429-0.815-0.135-1.177l0,0
				c0.285-0.362,0.815-0.42,1.178-0.135l0,0l0,0l0,0c0.361,0.294,0.42,0.824,0.135,1.186l0,0c-0.169,0.202-0.413,0.311-0.656,0.311
				l0,0C404.864,207.167,404.679,207.108,404.52,206.982z M401.172,204.577c-0.387-0.253-0.496-0.773-0.244-1.16l0,0
				c0.253-0.396,0.774-0.505,1.161-0.253l0,0c0.387,0.253,0.505,0.774,0.244,1.161l0,0c-0.16,0.253-0.429,0.387-0.698,0.387l0,0
				C401.476,204.711,401.315,204.669,401.172,204.577z M397.606,202.491c-0.412-0.219-0.572-0.732-0.353-1.136l0,0
				c0.219-0.412,0.724-0.572,1.136-0.353l0,0c0.412,0.211,0.571,0.723,0.353,1.136l0,0c-0.151,0.286-0.446,0.445-0.748,0.445l0,0
				C397.867,202.583,397.732,202.55,397.606,202.491z M393.864,200.708c-0.43-0.177-0.631-0.673-0.446-1.102l0,0
				c0.184-0.429,0.673-0.622,1.102-0.446l0,0c0.43,0.185,0.631,0.681,0.446,1.11l0,0c-0.135,0.32-0.446,0.505-0.773,0.505l0,0
				C394.083,200.775,393.965,200.759,393.864,200.708z M389.986,199.228c-0.445-0.151-0.672-0.631-0.529-1.068l0,0
				c0.151-0.438,0.631-0.673,1.067-0.521l0,0c0.446,0.143,0.682,0.622,0.531,1.068l0,0c-0.127,0.345-0.446,0.564-0.8,0.564l0,0
				C390.163,199.27,390.08,199.253,389.986,199.228z M386.01,198.025c-0.455-0.127-0.716-0.581-0.598-1.035l0,0
				c0.117-0.446,0.58-0.715,1.026-0.597l0,0c0.445,0.118,0.714,0.581,0.597,1.035l0,0c-0.101,0.37-0.438,0.622-0.808,0.622l0,0
				C386.152,198.05,386.076,198.042,386.01,198.025z M381.955,197.1L381.955,197.1c-0.462-0.092-0.757-0.53-0.673-0.992l0,0
				c0.093-0.454,0.53-0.748,0.984-0.664l0,0l0,0l0,0c0.462,0.093,0.757,0.53,0.673,0.984l0,0c-0.084,0.404-0.429,0.682-0.833,0.682
				l0,0C382.057,197.109,382.006,197.109,381.955,197.1z"/>
			<path id="XMLID_1096_" style="fill:#FFE837;" d="M169.534,386.756c-0.219,0-0.438-0.093-0.597-0.244
				c-0.152-0.16-0.244-0.378-0.244-0.597c0-0.219,0.092-0.438,0.244-0.597c0.319-0.312,0.883-0.312,1.194,0
				c0.16,0.159,0.244,0.369,0.244,0.597c0,0.219-0.085,0.437-0.244,0.597C169.971,386.663,169.752,386.756,169.534,386.756z"/>
		</g>
	</g>
	<g id="XMLID_151_">
		<g id="XMLID_29_">
			<path id="XMLID_33_" style="fill:#103C42;" d="M163.017,289.468c0,0,1.822-6.273,5.957-7.049
				c4.135-0.776,7.651-0.194,9.397,1.875c1.746,2.069,2.097,6.597,2.097,6.597l-0.888,2.249c0,0-1.626-6.078-7.242-6.078
				c-5.615,0-8.62,5.64-8.62,5.64l-0.701-3.643"/>
			<path id="XMLID_26_" style="fill:#FFB10E;" d="M167.199,308.459c0,0-2.955-1.332-5.496-9.871
				c-2.541-8.538,0.21-15.201,7.271-16.169c0,0-11.326,6.899,1.401,25.351L167.199,308.459z"/>
			<path id="XMLID_32_" style="fill:#FFB10E;" d="M176.747,308.459c0,0,2.955-1.332,5.496-9.871
				c2.541-8.538-0.21-15.201-7.27-16.169c0,0,11.326,6.899-1.402,25.351L176.747,308.459z"/>
		</g>
		<path id="XMLID_25_" style="fill:#FFB10E;" d="M211.452,414.247h-77.604c-3.034,0-5.493-2.459-5.493-5.493v-98.457
			c0-3.033,2.459-5.492,5.493-5.492h77.604c3.034,0,5.493,2.459,5.493,5.492v98.457
			C216.944,411.788,214.485,414.247,211.452,414.247z"/>
		<path id="XMLID_30_" style="fill:#02576C;" d="M128.355,354.387l-9.954,14.996c-0.406,0.611-0.623,1.329-0.623,2.063v28.425
			c0,2.061,1.671,3.732,3.732,3.732h6.845V354.387z"/>
		<path id="XMLID_42_" style="fill:#02576C;" d="M216.944,354.387l9.954,14.996c0.406,0.611,0.623,1.329,0.623,2.063v28.425
			c0,2.061-1.671,3.732-3.732,3.732h-6.845V354.387z"/>
		<path id="XMLID_34_" style="fill:#02576C;" d="M203.587,406.231h-61.874c-4.27,0-7.732-3.462-7.732-7.732v-31.241
			c0-4.271,3.462-7.732,7.732-7.732h61.874c4.27,0,7.732,3.462,7.732,7.732v31.241C211.319,402.77,207.857,406.231,203.587,406.231z
			"/>
		<rect id="XMLID_47_" x="133.909" y="378.995" style="opacity:0.8;fill:#02576C;" width="77.411" height="3.435"/>
		<path id="XMLID_50_" style="fill:#103C42;" d="M204.421,359.247h-63.543c-4.386,0-7.941,3.556-7.941,7.941v11.315
			c0,1.085,0.88,1.965,1.965,1.965h75.495c1.085,0,1.965-0.88,1.965-1.965v-11.315C212.362,362.803,208.807,359.247,204.421,359.247
			z"/>
		<path id="XMLID_46_" style="fill:#FFB10E;" d="M172.65,364.186L172.65,364.186c-2.633,0-4.768,2.135-4.768,4.769v19.912
			c0,2.633,2.135,4.768,4.768,4.768l0,0c2.633,0,4.768-2.135,4.768-4.768v-19.912C177.418,366.321,175.283,364.186,172.65,364.186z"
			/>
		<path id="XMLID_147_" style="fill:#FFFFFF;" d="M177.292,397.742h-9.284c-1.816,0-3.293-1.478-3.293-3.295v-9.283
			c0-1.815,1.477-3.294,3.293-3.294h9.284c1.816,0,3.293,1.479,3.293,3.294v9.283C180.585,396.264,179.108,397.742,177.292,397.742z
			 M168.008,384.246c-0.506,0-0.917,0.412-0.917,0.918v9.283c0,0.507,0.412,0.919,0.917,0.919h9.284
			c0.506,0,0.917-0.412,0.917-0.919v-9.283c0-0.506-0.412-0.918-0.917-0.918H168.008z"/>
		<path id="XMLID_48_" style="fill:#FFFFFF;" d="M172.614,383.321L172.614,383.321c-0.354,0-0.641,0.287-0.641,0.641v3.518
			c0,0.354,0.287,0.641,0.641,0.641l0,0c0.354,0,0.641-0.287,0.641-0.641v-3.518C173.255,383.608,172.968,383.321,172.614,383.321z"
			/>
		<path id="XMLID_49_" style="fill:#02576C;" d="M216.009,344.373H129.29c-1.65,0-2.988-1.338-2.988-2.988v-35.232
			c0-1.65,1.337-2.987,2.988-2.987h86.719c1.65,0,2.988,1.337,2.988,2.987v35.232C218.997,343.035,217.66,344.373,216.009,344.373z"
			/>
		<g id="XMLID_145_">
			<path id="XMLID_155_" style="fill:#FFB10E;" d="M172.65,308.459L172.65,308.459c-2.633,0-4.768,2.135-4.768,4.768v16.37
				c0,2.634,2.135,4.769,4.768,4.769l0,0c2.633,0,4.768-2.135,4.768-4.769v-16.37C177.418,310.594,175.283,308.459,172.65,308.459z"
				/>
			<path id="XMLID_150_" style="fill:#FFFFFF;" d="M177.292,338.474h-9.284c-1.816,0-3.293-1.479-3.293-3.295v-9.283
				c0-1.816,1.477-3.294,3.293-3.294h9.284c1.816,0,3.293,1.478,3.293,3.294v9.283C180.585,336.995,179.108,338.474,177.292,338.474
				z M168.008,324.978c-0.506,0-0.917,0.411-0.917,0.918v9.283c0,0.507,0.412,0.918,0.917,0.918h9.284
				c0.506,0,0.917-0.411,0.917-0.918v-9.283c0-0.507-0.412-0.918-0.917-0.918H168.008z"/>
			<path id="XMLID_146_" style="fill:#FFFFFF;" d="M172.614,324.053L172.614,324.053c-0.354,0-0.641,0.287-0.641,0.641v3.518
				c0,0.354,0.287,0.641,0.641,0.641l0,0c0.354,0,0.641-0.287,0.641-0.641v-3.518C173.255,324.34,172.968,324.053,172.614,324.053z"
				/>
		</g>
	</g>
	<g id="XMLID_3_">
		<polygon id="XMLID_35_" style="fill:#FFE837;" points="339.484,243.731 288.199,230.869 295.424,199.884 346.71,212.747 		"/>
		<path id="XMLID_36_" style="fill:#FFE837;" d="M295.424,199.884l16.988,19.541c2.502,2.878,6.534,3.889,10.099,2.532l24.199-9.21
			L295.424,199.884z"/>
	</g>
	<g id="XMLID_242_">
		<path id="XMLID_240_" style="fill:#103C42;" d="M280.747,194.132h-50.344c-2.189,0-3.964,1.775-3.964,3.964v30.892
			c0,2.189,1.774,3.964,3.964,3.964h7.068l4.997,4.092c0.71,0.582,1.777,0.076,1.777-0.842v-3.251h36.503
			c2.189,0,3.964-1.775,3.964-3.964v-30.892C284.711,195.907,282.936,194.132,280.747,194.132z"/>
		<g id="XMLID_263_">
			<g id="XMLID_244_" style="opacity:0.5;">
				<g id="XMLID_243_">
					<circle id="XMLID_258_" style="fill:#103C42;" cx="245.958" cy="213.861" r="3.442"/>
					<circle id="XMLID_249_" style="fill:#103C42;" cx="255.574" cy="213.861" r="3.442"/>
					<circle id="XMLID_245_" style="fill:#103C42;" cx="265.191" cy="213.861" r="3.442"/>
				</g>
			</g>
			<g id="XMLID_238_">
				<path id="XMLID_237_" style="fill:#FFFFFF;" d="M249.4,213.185c0,1.901-1.541,3.442-3.442,3.442
					c-1.901,0-3.442-1.541-3.442-3.442c0-1.901,1.542-3.442,3.442-3.442C247.859,209.743,249.4,211.284,249.4,213.185z"/>
				<path id="XMLID_239_" style="fill:#FFFFFF;" d="M259.017,213.185c0,1.901-1.541,3.442-3.442,3.442
					c-1.9,0-3.442-1.541-3.442-3.442c0-1.901,1.542-3.442,3.442-3.442C257.476,209.743,259.017,211.284,259.017,213.185z"/>
				<path id="XMLID_241_" style="fill:#FFFFFF;" d="M268.634,213.185c0,1.901-1.541,3.442-3.442,3.442s-3.442-1.541-3.442-3.442
					c0-1.901,1.541-3.442,3.442-3.442S268.634,211.284,268.634,213.185z"/>
			</g>
		</g>
	</g>
	<g id="XMLID_176_">
		<polygon id="XMLID_323_" style="fill:#FFE4AF;" points="334.729,421.086 334.509,423.821 340.199,427.853 331.36,426.867 
			331.898,421.194 		"/>
		<polygon id="XMLID_320_" style="fill:#103C42;" points="334.509,423.821 331.683,423.478 331.36,426.867 340.199,427.853 		"/>
		<polygon id="XMLID_317_" style="fill:#FFE4AF;" points="322.549,421.238 321.435,423.746 325.466,429.438 317.454,425.577 
			319.843,420.402 		"/>
		<path id="XMLID_268_" style="fill:#081E21;" d="M338.654,368.773c0,0,2.17,28.736-3.554,53.176l-3.681-0.563
			c0,0-0.238-22.714-2.775-32.568c-2.537-9.854-4.028-13.018-2.657-17.732L338.654,368.773z"/>
		<path id="XMLID_182_" style="fill:#103C42;" d="M333.575,369.478c0,0-1.649,28.771-10.554,52.239l-3.574-1.044
			c0,0,2.767-22.546,1.555-32.65c-1.212-10.103-2.272-13.436-0.288-17.929L333.575,369.478z"/>
		<path id="XMLID_181_" style="fill:#FFE4AF;" d="M349.394,349.055c0,0,0.776-2.016,1.424-2.237
			c0.647-0.222,0.998-0.277,1.313-0.629c0,0,0.389-0.073,0.37,0.241c-0.019,0.314-0.536,0.739-0.444,0.998
			c0.093,0.259,0.536,0.049,1.275-0.469c0.652-0.457,1.733-1.268,2.374-1.739c0.122-0.09,0.296-0.051,0.368,0.082l0,0
			c0.051,0.094,0.037,0.209-0.033,0.287l-1.47,1.636l0.111,0.384c0.035,0.12,0.017,0.25-0.05,0.355l-0.021,0.033
			c-0.062,0.098-0.082,0.215-0.058,0.327l0.065,0.3c0.028,0.132-0.006,0.27-0.092,0.373l-0.089,0.106
			c-0.091,0.108-0.123,0.254-0.088,0.391l0,0c0.044,0.171-0.018,0.352-0.158,0.458l-0.398,0.305c0,0-0.666,0.628-3.531,0.536
			L349.394,349.055z"/>
		<path id="XMLID_164_" style="fill:#33AF61;" d="M325.336,343.995c0,0-3.076,0.614-5.037,3.109c-1.96,2.495-1.01,8.852,0,12.595
			c1.01,3.742,0.415,10.396,0.415,10.396s2.712,2.107,9.971,2.107c7.258,0,8.16-2.538,8.16-2.538s-0.527-8.835-0.982-13.409
			c-0.454-4.575-3.044-11.083-4.589-11.645C331.728,344.049,325.336,343.995,325.336,343.995z"/>
		<g id="XMLID_40_">
			<path id="XMLID_156_" style="fill:#FFE4AF;" d="M334.893,336.974c0,0,1.404,5.93-0.624,6.826
				c-2.028,0.897-3.744-0.39-5.656,1.326c0,0-1.794,0.391-3.276-1.131c0,0,0.897-2.106,0.937-4.33
				c0.039-2.224-1.365-4.642,0.272-5.5c1.639-0.858,6.827-0.117,8.075-0.819C335.868,332.644,336.921,335.804,334.893,336.974z"/>
			<path id="XMLID_157_" style="fill:#461E00;" d="M334.893,336.974c0,0-0.429,0.546-2.652,0.468
				c-2.224-0.078-2.457-0.702-3.101-0.468c-0.645,0.234-0.059,2.028-0.449,2.497c-0.39,0.468-0.37-0.895-1.15-0.263
				c-0.78,0.633-0.332,2.213,0.702,2.135c0,0,0.331,0.02,0.39,0.253c0.059,0.234,0.078,0.897-0.663,1.132
				c-0.741,0.234-2.34,0-2.34,0s0.799-3.023,0.37-4.154c-0.429-1.132-0.976-3.53-0.039-4.271c0.936-0.741,2.887-0.819,3.843-0.8
				c0.955,0.02,3.783,0.11,4.583-0.257c0.8-0.367,1.461-0.113,1.648,0.608C336.219,334.575,336.551,336.389,334.893,336.974z"/>
		</g>
		<path id="XMLID_205_" style="opacity:0.5;fill:#009B39;" d="M321.693,356.226c8.615,4.931,16.484,3.675,16.484,3.675
			c-0.092-1.177-0.187-2.301-0.278-3.268l-3.439-0.407H321.693z"/>
		<path id="XMLID_169_" style="fill:#33AF61;" d="M321.693,348.648c0,0,5.397,4.152,11.211,4.567
			c5.813,0.415,16.735-4.703,16.735-4.703l1.015,2.419c0,0-6.072,6.229-13.391,7.166c-6.912,0.887-15.57-1.872-15.57-1.872
			S319.171,352.959,321.693,348.648z"/>
		<polygon id="XMLID_266_" style="fill:#103C42;" points="321.435,423.746 318.881,422.485 317.454,425.577 325.466,429.438 		"/>
	</g>
	<g id="XMLID_321_">
		<path id="XMLID_302_" style="fill:#FFE4AF;" d="M150.655,112.692c0,0,8.235,0.246,8.621,0.736
			c0.385,0.491-2.593,0.491-3.294,0.491c0,0,1.051,1.892,0.28,2.208c-0.771,0.315-1.612,1.051-2.944,0.315
			c-1.332-0.736-3.119-1.016-3.119-1.016L150.655,112.692z"/>
		<path id="XMLID_319_" style="fill:#FF8B35;" d="M128.362,97.04c0,0,4.492,4.403,8.346,8.959
			c3.855,4.555,14.367,6.448,14.367,6.448l-0.49,3.364c0,0-5.574-0.428-11.564-1.612c-5.99-1.184-9.111-5.677-9.111-5.677
			L128.362,97.04z"/>
		<polygon id="XMLID_361_" style="fill:#FFE4AF;" points="129.516,173.343 129.295,176.078 134.986,180.111 126.147,179.124 
			126.685,173.452 		"/>
		<polygon id="XMLID_358_" style="fill:#103C42;" points="129.295,176.078 126.469,175.735 126.147,179.124 134.986,180.111 		"/>
		<polygon id="XMLID_355_" style="fill:#FFE4AF;" points="117.335,173.496 116.221,176.003 120.253,181.694 112.241,177.834 
			114.629,172.66 		"/>
		<path id="XMLID_354_" style="fill:#081E21;" d="M133.441,121.03c0,0,2.17,28.736-3.554,53.175l-3.681-0.562
			c0,0-0.238-22.713-2.776-32.568c-2.537-9.854-4.028-13.018-2.657-17.733L133.441,121.03z"/>
		<path id="XMLID_351_" style="fill:#103C42;" d="M128.362,121.735c0,0-1.649,28.771-10.554,52.239l-3.574-1.044
			c0,0,2.768-22.545,1.556-32.649c-1.212-10.103-2.272-13.436-0.289-17.929L128.362,121.735z"/>
		<path id="XMLID_348_" style="fill:#FFE4AF;" d="M113.1,127.627c0,0,1.657,1.385,1.659,2.069s-0.059,1.035,0.172,1.445
			c0,0-0.055,0.391-0.347,0.273c-0.292-0.119-0.527-0.746-0.802-0.742c-0.275,0.004-0.219,0.491,0.032,1.358
			c0.222,0.765,0.641,2.049,0.881,2.808c0.046,0.145-0.047,0.296-0.196,0.322l0,0c-0.104,0.018-0.209-0.032-0.261-0.125
			l-1.074-1.918l-0.399-0.018c-0.126-0.006-0.242-0.065-0.321-0.163l-0.024-0.03c-0.072-0.089-0.176-0.147-0.29-0.16l-0.305-0.035
			c-0.134-0.016-0.253-0.092-0.324-0.207l-0.073-0.119c-0.073-0.121-0.2-0.198-0.341-0.208l0,0c-0.176-0.013-0.327-0.13-0.383-0.297
			l-0.16-0.475c0,0-0.38-0.833,0.631-3.516L113.1,127.627z"/>
		<path id="XMLID_347_" style="fill:#FFB10E;" d="M120.123,96.252c0,0-3.077,0.614-5.037,3.109c-1.96,2.495-1.01,8.852,0,12.594
			c1.01,3.743,0.415,10.396,0.415,10.396s2.712,2.106,9.97,2.106c7.258,0,8.161-2.538,8.161-2.538s-0.528-8.835-0.982-13.41
			c-0.455-4.574-3.044-11.082-4.589-11.644C126.515,96.306,120.123,96.252,120.123,96.252z"/>
		<g id="XMLID_328_">
			<path id="XMLID_344_" style="fill:#FFE4AF;" d="M129.679,89.231c0,0,1.404,5.929-0.624,6.826
				c-2.028,0.897-3.745-0.39-5.656,1.326c0,0-1.794,0.39-3.276-1.131c0,0,0.897-2.106,0.936-4.33c0.039-2.224-1.365-4.642,0.273-5.5
				c1.638-0.858,6.827-0.117,8.075-0.819C130.655,84.901,131.708,88.061,129.679,89.231z"/>
			<path id="XMLID_341_" style="fill:#461E00;" d="M129.679,89.231c0,0-0.429,0.546-2.652,0.468
				c-2.224-0.078-2.458-0.702-3.101-0.468c-0.644,0.234-0.059,2.028-0.449,2.496c-0.39,0.468-0.371-0.894-1.151-0.262
				c-0.78,0.632-0.332,2.212,0.702,2.134c0,0,0.332,0.02,0.39,0.253c0.059,0.234,0.078,0.898-0.663,1.131
				c-0.741,0.234-2.34,0-2.34,0s0.8-3.023,0.371-4.154c-0.429-1.131-0.975-3.53-0.039-4.271c0.936-0.741,2.887-0.819,3.842-0.799
				c0.955,0.019,3.784,0.11,4.583-0.257c0.8-0.368,1.46-0.114,1.647,0.608C131.006,86.831,131.337,88.646,129.679,89.231z"/>
		</g>
		<path id="XMLID_326_" style="fill:#FFB10E;" d="M122.412,101.536c0,0-5.67,3.771-7.937,9.141
			c-2.266,5.369-0.941,17.358-0.941,17.358l-2.617,0.181c0,0-3.939-7.756-2.468-14.986c1.389-6.829,6.791-14.136,6.791-14.136
			S119.144,97.759,122.412,101.536z"/>
		<polygon id="XMLID_322_" style="fill:#103C42;" points="116.221,176.003 113.667,174.742 112.241,177.834 120.253,181.694 		"/>
		<path id="XMLID_350_" style="fill:#FF8B35;" d="M118.077,123.502c-0.877-2.177-0.735-5.119-0.432-7.971
			c0.351-3.294-0.711-8.881-0.711-8.881c-1.136,1.319-2.254,3.575-2.261,3.589c0.132,0.611,0.271,1.191,0.413,1.717
			c1.01,3.743,0.415,10.396,0.415,10.396S116.275,122.945,118.077,123.502z"/>
	</g>
	<g id="XMLID_372_">
		<path id="XMLID_254_" style="fill:#FFE4AF;" d="M249.456,114.442l0.578-1.714c0,0,0.841-2.067,0.245-2.505
			c-0.596-0.438-1.209-0.92-1.209-0.92l-2.103,2.742c0,0-0.192,0.613,0.684,1.174l-0.298,1.121L249.456,114.442z"/>
		<path id="XMLID_390_" style="fill:#7CC5C3;" d="M261.229,115.057c0,0-5.572,5.1-9.947,10.173c0,0-1.178-7.514-1.199-10.788
			l-3.448-0.646c0,0-1.209,6.79-1.104,11.043c0.105,4.253,1.892,7.479,5.204,6.891c3.311-0.588,9.199-4.057,9.199-4.057
			L261.229,115.057z"/>
		<polygon id="XMLID_440_" style="fill:#FFE4AF;" points="251.519,188.376 251.063,191.081 244.559,193.601 253.37,194.806 
			254.236,189.173 		"/>
		<polygon id="XMLID_437_" style="fill:#103C42;" points="251.063,191.081 253.888,191.44 253.37,194.806 244.559,193.601 		"/>
		<polygon id="XMLID_434_" style="fill:#FFE4AF;" points="273.617,188.591 273.803,191.329 280.025,194.479 271.138,194.806 
			270.834,189.115 		"/>
		<polygon id="XMLID_375_" style="fill:#103C42;" points="273.803,191.329 270.956,191.406 271.138,194.806 280.025,194.479 		"/>
		<path id="XMLID_388_" style="fill:#103C42;" d="M255.689,139.409c0,0-4.625,34.152-5.606,50.131l4.559,0.575
			c0,0,5.349-26.926,8.244-32.814c0,0,0.936,0.232,2.155,0.187c0,0,3.564,18.296,5.238,32.627l4.133-0.995
			c0,0,1.033-29.313-1.556-48.577L255.689,139.409z"/>
		<path id="XMLID_427_" style="fill:#FFE4AF;" d="M276.189,145.817c0,0-1.658,1.384-1.659,2.068
			c-0.002,0.684,0.059,1.035-0.172,1.445c0,0,0.055,0.392,0.347,0.273c0.291-0.119,0.527-0.746,0.802-0.742
			c0.275,0.004,0.22,0.491-0.032,1.358c-0.223,0.765-0.642,2.049-0.881,2.808c-0.046,0.145,0.046,0.296,0.196,0.322l0,0
			c0.104,0.018,0.209-0.032,0.261-0.124l1.074-1.918l0.399-0.018c0.125-0.005,0.242-0.064,0.32-0.162l0.024-0.031
			c0.072-0.089,0.177-0.146,0.291-0.16l0.305-0.036c0.134-0.015,0.254-0.092,0.324-0.207l0.072-0.118
			c0.073-0.121,0.2-0.198,0.341-0.209l0,0c0.176-0.013,0.327-0.13,0.383-0.297l0.16-0.474c0,0,0.381-0.833-0.631-3.516
			L276.189,145.817z"/>
		<path id="XMLID_424_" style="fill:#9CF8F5;" d="M269.167,114.442c0,0,3.076,0.615,5.037,3.11c1.96,2.495,1.01,8.851,0,12.594
			c-1.011,3.742-0.415,10.396-0.415,10.396s-2.713,2.106-9.971,2.106c-7.258,0-8.161-2.538-8.161-2.538s0.528-8.836,0.983-13.41
			c0.454-4.574,3.044-11.082,4.589-11.644C262.773,114.495,269.167,114.442,269.167,114.442z"/>
		<g id="XMLID_419_">
			<path id="XMLID_421_" style="fill:#FFE4AF;" d="M259.952,106.618c0,0-2.194,5.684-0.306,6.848
				c1.888,1.164,3.763,0.121,5.424,2.08c0,0,1.726,0.629,3.4-0.677c0,0-0.605-2.209-0.342-4.417
				c0.263-2.208,1.981-4.414,0.474-5.486c-1.507-1.072-6.747-1.04-7.889-1.905C259.572,102.196,258.101,105.184,259.952,106.618z"/>
			<path id="XMLID_420_" style="fill:#461E00;" d="M259.952,106.618c0,0,0.351,0.6,2.565,0.823s2.53-0.363,3.136-0.044
				c0.607,0.319-0.217,2.018,0.107,2.534c0.323,0.517,0.488-0.836,1.176-0.104c0.688,0.732,0.029,2.237-0.984,2.02
				c0,0-0.331-0.026-0.421,0.198c-0.09,0.224-0.199,0.878,0.504,1.21c0.702,0.333,2.319,0.317,2.319,0.317s-0.384-3.103,0.195-4.166
				c0.578-1.063,1.443-3.366,0.616-4.227c-0.827-0.861-2.749-1.202-3.698-1.313c-0.95-0.11-3.764-0.402-4.507-0.875
				c-0.742-0.472-1.432-0.311-1.714,0.379C258.963,104.062,258.389,105.814,259.952,106.618z"/>
			<path id="XMLID_160_" style="fill:#461E00;" d="M265.712,109.591c0,0-0.638,1.817-1.737,2.422c-1.1,0.606-3.475,0.845-5.02,0.51
				c0,0-0.111,0.653,0.542,1.116c0.653,0.462,2.327,0.542,3.044,0.701c0.718,0.159,1.802-0.43,2.295-1.371
				c0.494-0.94,1.164-3.172,1.164-3.172L265.712,109.591z"/>
			<path id="XMLID_162_" style="fill:#461E00;" d="M258.862,110.528c0,0,1.032,0.268,1.464,0.96c0.456,0.732,0.496,1.34,0.496,1.34
				l0.311-0.04c0,0-0.076-0.94-0.436-1.576c-0.36-0.636-1.74-1.188-1.74-1.188L258.862,110.528z"/>
		</g>
		<path id="XMLID_391_" style="fill:#9CF8F5;" d="M266.877,119.726c0,0,5.671,3.772,7.936,9.141
			c2.267,5.369,0.942,17.358,0.942,17.358l2.617,0.181c0,0,3.939-7.755,2.468-14.985c-1.389-6.829-6.79-14.136-6.79-14.136
			S270.145,115.949,266.877,119.726z"/>
		<path id="XMLID_373_" style="fill:#7CC5C3;" d="M271.213,141.691c0.876-2.177,0.734-5.118,0.431-7.97
			c-0.351-3.294,0.712-8.881,0.712-8.881c1.136,1.32,2.254,3.576,2.261,3.59c-0.131,0.61-0.27,1.191-0.412,1.716
			c-1.011,3.743-0.415,10.397-0.415,10.397S273.015,141.134,271.213,141.691z"/>
		<g id="XMLID_253_">
			<path id="XMLID_252_" style="fill:#103C42;" d="M251.078,107.795c0,0-0.969,0.817-1.642,1.618
				c-0.734,0.873-1.185,3.252-1.818,3.488c-0.633,0.236-1.669-0.005-1.976-0.523c-0.307-0.518,0.75-2.179,1.533-3.178
				c0.771-0.983,1.651-2.247,1.651-2.247L251.078,107.795z"/>
			<path id="XMLID_247_" style="fill:#FFE837;" d="M240.39,95.464l11.632,5.237c1.738,0.783,2.672,2.694,2.22,4.547l0,0
				c-0.439,1.8-2.07,3.054-3.922,3.017l-12.993-0.257L240.39,95.464z"/>
			<path id="XMLID_257_" style="fill:#103C42;" d="M252.022,100.701l-2.216-0.998l-2.078,8.511l2.592,0.051
				c1.852,0.037,3.483-1.217,3.922-3.017l0,0C254.694,103.396,253.761,101.484,252.022,100.701z"/>
			<path id="XMLID_251_" style="fill:#103C42;" d="M237.164,108.942L237.164,108.942c-0.33-0.08-0.533-0.415-0.453-0.745
				l3.22-13.185c0.08-0.33,0.416-0.533,0.745-0.453l0,0c0.33,0.08,0.533,0.416,0.453,0.746l-3.22,13.185
				C237.829,108.819,237.494,109.023,237.164,108.942z"/>
		</g>
		<path id="XMLID_255_" style="fill:#FFE4AF;" d="M248.713,110.072c-0.075,0.21-0.631,0.202-1.241-0.017
			c-0.61-0.219-1.044-0.566-0.969-0.776c0.075-0.209,0.631-0.202,1.241,0.017C248.354,109.515,248.788,109.862,248.713,110.072z"/>
		<path id="XMLID_443_" style="fill:#FFE4AF;" d="M248.238,110.621c-0.075,0.21-0.63,0.202-1.241-0.017
			c-0.61-0.219-1.045-0.566-0.969-0.776c0.075-0.209,0.631-0.202,1.241,0.017C247.879,110.064,248.313,110.411,248.238,110.621z"/>
		<path id="XMLID_444_" style="fill:#FFE4AF;" d="M248.186,111.169c-0.075,0.21-0.631,0.202-1.241-0.017
			c-0.61-0.219-1.044-0.566-0.969-0.775c0.075-0.21,0.631-0.202,1.241,0.017C247.827,110.612,248.261,110.96,248.186,111.169z"/>
		<path id="XMLID_446_" style="fill:#FFE4AF;" d="M247.524,111.509c-0.058,0.163-0.491,0.157-0.967-0.013
			c-0.476-0.171-0.814-0.441-0.755-0.604c0.059-0.164,0.492-0.158,0.967,0.013C247.245,111.075,247.583,111.346,247.524,111.509z"/>
		<g id="XMLID_454_">
			
				<rect id="XMLID_466_" x="234.495" y="95.625" transform="matrix(0.6128 -0.7902 0.7902 0.6128 14.3969 223.1552)" style="fill:#C3E9E7;" width="0.84" height="2.523"/>
			
				<rect id="XMLID_469_" x="228.534" y="91.003" transform="matrix(0.6127 -0.7903 0.7903 0.6127 15.7575 216.6836)" style="fill:#C3E9E7;" width="0.84" height="2.523"/>
		</g>
		<g id="XMLID_455_">
			
				<rect id="XMLID_465_" x="233.807" y="99.058" transform="matrix(0.2249 -0.9744 0.9744 0.2249 83.8049 305.9875)" style="fill:#C3E9E7;" width="0.841" height="2.523"/>
			
				<rect id="XMLID_463_" x="228.658" y="97.79" transform="matrix(0.2247 -0.9744 0.9744 0.2247 81.0101 300.0783)" style="fill:#C3E9E7;" width="0.841" height="2.682"/>
			
				<rect id="XMLID_467_" x="223.51" y="96.682" transform="matrix(0.2249 -0.9744 0.9744 0.2249 78.1385 294.1124)" style="fill:#C3E9E7;" width="0.841" height="2.523"/>
		</g>
		<g id="XMLID_457_">
			
				<rect id="XMLID_462_" x="232.498" y="103.039" transform="matrix(0.9564 -0.2921 0.2921 0.9564 -20.0251 72.7878)" style="fill:#C3E9E7;" width="2.523" height="0.841"/>
			
				<rect id="XMLID_464_" x="226.992" y="104.72" transform="matrix(0.9564 -0.2921 0.2921 0.9564 -20.7562 71.2528)" style="fill:#C3E9E7;" width="2.523" height="0.841"/>
		</g>
	</g>
	<g id="XMLID_336_">
		<path id="XMLID_380_" style="fill:#FFCDAB;" d="M113.119,285.992c0,0-1.073,0.868-1.213,1.709c-0.14,0.841-0.101,1.734,0.07,1.84
			c0.171,0.105,0.381-0.46,0.63-0.934C112.856,288.135,113.119,285.992,113.119,285.992z"/>
		<path id="XMLID_387_" style="fill:#FFE4AF;" d="M117.902,284.479c0,0-2.838,0.421-3.837,0.631
			c-0.999,0.211-1.761,1.761-1.761,2.629c0,0.867,0.64,2.313,0.99,2.207c0.35-0.104-0.166-1.262,0-1.708
			c0.166-0.447,0.64-1.151,1.638-1.023c0.999,0.129,0.263,1.391,0.473,1.706c0.21,0.315,0.972,0.367,0.972-0.368
			c0-0.736,1.787-1.235,2.182-1.945C118.953,285.899,117.902,284.479,117.902,284.479z"/>
		<polygon id="XMLID_405_" style="fill:#FFE4AF;" points="112.728,326.298 112.278,329.005 105.779,331.537 114.593,332.725 
			115.447,327.09 		"/>
		<polygon id="XMLID_402_" style="fill:#BF5203;" points="112.278,329.005 115.104,329.357 114.593,332.725 105.779,331.537 		"/>
		<polygon id="XMLID_399_" style="fill:#FFE4AF;" points="120.306,327.963 120.25,330.706 114.184,334.147 123.077,334.054 
			123.111,328.355 		"/>
		<polygon id="XMLID_342_" style="fill:#BF5203;" points="120.25,330.706 123.097,330.648 123.077,334.054 114.184,334.147 		"/>
		<path id="XMLID_356_" style="fill:#BF5203;" d="M145.621,284.948c0,0,4.241,9.016,0.391,11.86
			c-4.736,3.5-11.503,5.087-21.889,5.488l-0.398,26.509l-4.453-0.036c0,0-4.822-27.01-2.861-30.428
			c1.961-3.418,14.852-8.584,14.852-8.584L145.621,284.948z"/>
		<path id="XMLID_331_" style="fill:#FFB10E;" d="M148.121,290.355c0,0,1.921,9.775-2.505,11.599
			c-5.446,2.243-12.395,2.137-22.567,0l-6.834,25.616l-4.31-1.118c0,0,1.892-27.371,4.626-30.21
			c2.733-2.838,16.493-4.714,16.493-4.714L148.121,290.355z"/>
		<path id="XMLID_425_" style="fill:#FFB10E;" d="M130.567,289.952l-7.263,3.459l2.44,9.075c0,0,4.069,1.209,9.934,1.294
			c5.865,0.085,9.818-1.19,11.22-1.913c1.403-0.722,3.124-5.556,1.222-11.512L130.567,289.952z"/>
		<path id="XMLID_408_" style="fill:#BF5203;" d="M136.901,265.508c0,0-3.773,5.033-6.893,10.119
			c-3.12,5.087-13.225,8.55-13.225,8.55l0.995,3.251c0,0,5.444-1.268,11.186-3.345c5.742-2.077,8.146-6.991,8.146-6.991
			L136.901,265.508z"/>
		<path id="XMLID_392_" style="fill:#FFE4AF;" d="M150.902,295.654c0,0-1.658,1.385-1.659,2.068
			c-0.001,0.685,0.06,1.034-0.172,1.445c0,0,0.055,0.392,0.347,0.272c0.292-0.118,0.527-0.746,0.802-0.741
			c0.275,0.004,0.219,0.49-0.033,1.357c-0.222,0.766-0.641,2.05-0.881,2.809c-0.045,0.145,0.047,0.296,0.196,0.321l0,0
			c0.105,0.019,0.209-0.031,0.261-0.124l1.074-1.918l0.399-0.018c0.125-0.005,0.242-0.065,0.321-0.162l0.024-0.03
			c0.072-0.09,0.177-0.146,0.291-0.16l0.305-0.035c0.134-0.016,0.254-0.092,0.324-0.207l0.072-0.118
			c0.074-0.121,0.201-0.198,0.341-0.209l0,0c0.176-0.014,0.327-0.13,0.383-0.298l0.16-0.474c0,0,0.381-0.833-0.63-3.516
			L150.902,295.654z"/>
		<path id="XMLID_389_" style="fill:#FF6E03;" d="M143.879,264.279c0,0,3.077,0.614,5.037,3.109c1.961,2.495,1.01,8.852,0,12.595
			c-1.01,3.742-0.415,10.396-0.415,10.396s-2.712,2.107-9.971,2.107s-8.161-2.538-8.161-2.538s0.528-8.836,0.983-13.41
			c0.454-4.574,3.044-11.082,4.589-11.644C137.486,264.332,143.879,264.279,143.879,264.279z"/>
		<g id="XMLID_384_">
			<path id="XMLID_386_" style="fill:#FFE4AF;" d="M134.322,257.258c0,0-1.404,5.929,0.624,6.826
				c2.028,0.897,3.745-0.39,5.656,1.326c0,0,1.795,0.391,3.277-1.131c0,0-0.897-2.106-0.936-4.33
				c-0.039-2.224,1.365-4.642-0.273-5.5c-1.638-0.858-6.826-0.117-8.075-0.819C133.347,252.928,132.294,256.088,134.322,257.258z"/>
		</g>
		<path id="XMLID_357_" style="fill:#FF6E03;" d="M141.59,269.564c0,0,5.671,3.771,7.937,9.14
			c2.267,5.369,0.942,17.358,0.942,17.358l2.617,0.181c0,0,3.938-7.755,2.468-14.985c-1.389-6.829-6.79-14.136-6.79-14.136
			S144.857,265.786,141.59,269.564z"/>
		<path id="XMLID_339_" style="fill:#BF5203;" d="M145.925,291.528c0.876-2.177,0.734-5.118,0.431-7.971
			c-0.351-3.294,0.712-8.881,0.712-8.881c1.136,1.319,2.254,3.575,2.261,3.59c-0.131,0.61-0.271,1.19-0.413,1.717
			c-1.01,3.742-0.415,10.396-0.415,10.396S147.727,290.972,145.925,291.528z"/>
		<path id="XMLID_349_" style="fill:#FFFFFF;" d="M112.781,296.498l-0.106,0.077c-0.242,0.178-0.582,0.125-0.76-0.117l-8.214-11.208
			c-0.177-0.242-0.125-0.582,0.117-0.76l0.106-0.078c0.242-0.178,0.582-0.125,0.76,0.117l8.214,11.208
			C113.075,295.979,113.023,296.32,112.781,296.498z"/>
		<path id="XMLID_365_" style="fill:#FFFFFF;" d="M127.152,290.989l-13.846,6.464c-0.272,0.127-0.596,0.01-0.723-0.263l0,0
			c-0.127-0.272-0.009-0.596,0.263-0.724l13.846-6.464c0.272-0.127,0.596-0.009,0.723,0.263l0,0
			C127.542,290.538,127.424,290.861,127.152,290.989z"/>
		<path id="XMLID_385_" style="fill:#461E00;" d="M134.322,257.258c0,0-1.647,0.351-2.173-0.858
			c-0.526-1.209,0.233-2.471,0.233-2.471s-0.87-1.692,0.853-1.865c0,0,1.145-1.078,2.38-0.684c1.235,0.395,3.837-0.105,4.888,0.342
			c1.051,0.446,3.734,0.122,4.232,2.155c1.186,4.851,2.475,4.991,3.736,7.529c1.261,2.538,1.402,4.803,3.622,6.558
			c2.558,2.022,3.39,4.705,1.86,6.49c-2.08,2.427-4.424,2.708-5.218-0.919c-0.794-3.627-1.478-3.784-3.633-4.1
			c-2.155-0.315-3.731-5.361-2.523-7.148c0,0-2.155-0.71-1.603-1.945c0,0,1.13,0.088,1.209-0.85c0.079-0.938-0.42-1.963-1.314-1.121
			c0,0-0.158,0.631-0.526,0.578c-0.368-0.053,0.079-1.63-0.499-1.761c-0.579-0.132-2.208-0.026-2.891-0.132
			C136.272,256.951,135.263,257.485,134.322,257.258z"/>
	</g>
	<g id="XMLID_382_">
		<g id="XMLID_159_">
			<path id="XMLID_167_" style="fill:#103C42;" d="M334.489,106.962l-30.178-13.132l-5.977,25.011
				c-0.372,1.56,0.257,3.187,1.581,4.09l18.206,12.413c5.309,3.62,11.763,5.162,18.135,4.334l21.85-2.84
				c1.591-0.207,2.888-1.374,3.26-2.934l5.978-25.011L334.489,106.962z"/>
			<path id="XMLID_422_" style="opacity:0.5;fill:#103C42;" d="M367.343,108.894l-32.854-1.932L304.311,93.83l-2.689,11.248
				l33.031,34.734c0.534-0.036,1.067-0.064,1.602-0.134l21.85-2.84c1.591-0.207,2.888-1.374,3.26-2.934L367.343,108.894z"/>
			<path id="XMLID_165_" style="fill:#103C42;" d="M279.064,83.928l50.234,39.208c0.709,0.554,1.624,0.772,2.507,0.599
				l62.534-12.258c2.609-0.511,3.408-3.854,1.312-5.491l-50.234-39.208c-0.709-0.553-1.623-0.772-2.506-0.599l-62.534,12.258
				C277.767,78.948,276.968,82.291,279.064,83.928z"/>
		</g>
		<path id="XMLID_378_" style="fill:#FFB10E;" d="M385.453,144.388c-1.622,0-3.115-0.357-4.456-1.073
			c-4.954-2.65-7.75-10.021-8.083-21.315c-0.581-19.694-30.387-28.148-30.688-28.231l0.136-0.492
			c0.305,0.084,30.469,8.638,31.061,28.708c0.327,11.101,3.029,18.322,7.814,20.88c3.596,1.923,8.179,1.168,13.622-2.238
			c7.529-4.711,14.697-6.253,19.662-4.233c2.963,1.207,4.954,3.59,5.758,6.893l-0.496,0.121c-0.763-3.137-2.648-5.399-5.454-6.542
			c-4.813-1.958-11.81-0.429-19.199,4.194C391.595,143.27,388.323,144.388,385.453,144.388z"/>
		<path id="XMLID_166_" style="fill:#FFB10E;" d="M423.616,146.803c-0.697-2.372-2.262-4.001-3.494-3.639
			c-1.233,0.362-1.666,2.579-0.969,4.951c0.697,2.372,2.262,4.001,3.494,3.639C423.88,151.391,424.313,149.175,423.616,146.803z"/>
		<path id="XMLID_173_" style="fill:#FFB10E;" d="M345.668,93.844c-0.281,1.344-2.605,1.995-5.19,1.454
			c-2.585-0.541-4.452-2.069-4.171-3.413c0.281-1.344,2.605-1.995,5.19-1.454C344.082,90.972,345.949,92.501,345.668,93.844z"/>
	</g>
</g>
<g id="DESIGNED_BY_FREEPIK">
	<g id="XMLID_2_">
		<g id="XMLID_4367_">
			<g id="XMLID_4393_">
				<path id="XMLID_4402_" style="fill:#1D262D;" d="M260.103,466.76c-0.433,0.443-0.804,0.932-1.108,1.453l-0.465-0.241
					c-0.067-0.297-0.35-0.502-0.659-0.466c-0.331,0.039-0.567,0.339-0.528,0.67c0.038,0.331,0.338,0.567,0.669,0.528
					c0.065-0.007,0.127-0.025,0.184-0.052l0.452,0.234c-0.251,0.554-0.434,1.139-0.54,1.743l0.747,0.132
					c0.23-1.306,0.85-2.507,1.792-3.473L260.103,466.76z"/>
				<path id="XMLID_4401_" style="fill:#1D262D;" d="M265.591,464.458c-0.171,0-0.34,0.006-0.509,0.017l-0.074-0.626
					c0.188-0.149,0.296-0.389,0.266-0.645c-0.046-0.393-0.402-0.674-0.795-0.628c-0.393,0.047-0.674,0.402-0.628,0.796
					c0.03,0.254,0.189,0.461,0.404,0.563l0.073,0.624c-0.714,0.116-1.402,0.332-2.06,0.646l0.327,0.684
					c0.935-0.447,1.942-0.674,2.995-0.674c0.497,0,0.993,0.053,1.476,0.158l0.16-0.741
					C266.692,464.517,266.142,464.458,265.591,464.458z"/>
				<path id="XMLID_4400_" style="fill:#1D262D;" d="M272.193,467.005c0.331-0.04,0.566-0.341,0.525-0.672
					c-0.04-0.331-0.341-0.566-0.672-0.525c-0.31,0.038-0.535,0.304-0.53,0.608l-0.416,0.363c-0.418-0.43-0.889-0.813-1.407-1.14
					l-0.404,0.642c1.135,0.715,2.021,1.727,2.563,2.926l0.691-0.313c-0.251-0.554-0.567-1.071-0.942-1.545l0.402-0.351
					C272.064,467.01,272.128,467.014,272.193,467.005z"/>
				<path id="XMLID_4398_" style="fill:#1D262D;" d="M265.044,474.666c-0.386,0.024-0.775,0.035-1.157,0.035
					c-0.88,0-1.733-0.061-2.478-0.18c-0.391-0.062-0.846-0.154-1.271-0.292c1.047,1.861,3.069,3.125,5.389,3.125
					c2.855,0,5.263-1.916,5.949-4.503c-0.682,0.449-1.505,0.825-2.458,1.122C267.838,474.342,266.463,474.581,265.044,474.666z"/>
				<path id="XMLID_4394_" style="fill:#1D262D;" d="M265.591,465.975c-3.352,0-6.079,2.666-6.079,5.943
					c0,0.425,0.046,0.849,0.137,1.261c0.674,0.483,2.706,0.891,5.348,0.731c2.88-0.174,5.297-0.958,6.673-2.159
					c-0.006-0.194-0.021-0.39-0.046-0.581C271.243,468.208,268.65,465.975,265.591,465.975z M263.432,472.489
					c-1.02,0-1.85-0.83-1.85-1.85c0-1.02,0.83-1.85,1.85-1.85c1.021,0,1.85,0.83,1.85,1.85
					C265.281,471.659,264.452,472.489,263.432,472.489z M268.169,471.581c-0.75,0-1.36-0.61-1.36-1.36s0.61-1.36,1.36-1.36
					c0.751,0,1.361,0.61,1.361,1.36S268.92,471.581,268.169,471.581z"/>
			</g>
			<path id="XMLID_4391_" style="fill:#1D262D;" d="M281.595,467.842c-0.295-0.116-0.806-0.31-1.383-0.237
				c-0.551,0.068-0.844,0.34-0.844,1.006v0.866h2.228v1.717h-2.228v5.455h-1.932v-5.455h-1.339v-1.717h1.339v-0.889
				c0-1.68,0.896-2.782,2.568-2.782c0.643,0,1.157,0.121,1.59,0.308V467.842z"/>
			<path id="XMLID_4387_" style="fill:#1D262D;" d="M286.297,471.173c-0.177-0.029-0.357-0.046-0.525-0.046
				c-0.895,0-1.51,0.548-1.51,1.613v3.908h-1.933v-7.172h1.873v0.784c0.451-0.673,1.14-0.977,2.021-0.977
				c0.414,0,0.848,0.128,1.095,0.337L286.297,471.173z"/>
			<path id="XMLID_4382_" style="fill:#1D262D;" d="M293.965,473.052c0,0.222-0.016,0.488-0.037,0.651h-5.085
				c0.207,1.036,0.933,1.487,1.843,1.487c0.622,0,1.296-0.252,1.814-0.688l1.133,1.243c-0.814,0.748-1.851,1.089-3.057,1.089
				c-2.198,0-3.724-1.495-3.724-3.753c0-2.258,1.48-3.797,3.627-3.797C292.544,469.284,293.957,470.816,293.965,473.052z
				 M288.851,472.386h3.175c-0.178-0.918-0.732-1.437-1.561-1.437C289.554,470.949,289.021,471.497,288.851,472.386z"/>
			<path id="XMLID_4379_" style="fill:#1D262D;" d="M301.618,473.052c0,0.222-0.016,0.488-0.037,0.651h-5.085
				c0.207,1.036,0.933,1.487,1.843,1.487c0.622,0,1.296-0.252,1.813-0.688l1.133,1.243c-0.814,0.748-1.851,1.089-3.058,1.089
				c-2.197,0-3.723-1.495-3.723-3.753c0-2.258,1.48-3.797,3.627-3.797C300.196,469.284,301.61,470.816,301.618,473.052z
				 M296.504,472.386h3.175c-0.178-0.918-0.732-1.437-1.561-1.437C297.207,470.949,296.674,471.497,296.504,472.386z"/>
			<path id="XMLID_4375_" style="fill:#1D262D;" d="M309.964,473.059c0,2.154-1.495,3.775-3.472,3.775
				c-0.962,0-1.644-0.378-2.109-0.933v3.708h-1.924v-10.133h1.887v0.792c0.467-0.585,1.155-0.984,2.14-0.984
				C308.469,469.284,309.964,470.905,309.964,473.059z M304.286,473.059c0,1.133,0.748,1.977,1.844,1.977
				c1.14,0,1.85-0.881,1.85-1.977c0-1.095-0.71-1.976-1.85-1.976C305.034,471.083,304.286,471.927,304.286,473.059z"/>
			<path id="XMLID_4370_" style="fill:#1D262D;" d="M313.067,467.13c0,0.696-0.541,1.229-1.236,1.229
				c-0.695,0-1.229-0.533-1.229-1.229c0-0.695,0.533-1.243,1.229-1.243C312.526,465.887,313.067,466.435,313.067,467.13z
				 M312.808,476.648h-1.932v-7.172h1.932V476.648z"/>
			<path id="XMLID_4368_" style="fill:#1D262D;" d="M316.031,472.03l2.702-2.554h2.368l-3.479,3.375l3.501,3.797h-2.376
				l-2.717-2.901v2.901H314.1V465.99h1.932V472.03z"/>
		</g>
		<g id="XMLID_4294_">
			<path id="XMLID_4360_" style="fill:#1D262D;" d="M184.412,476.584v-1.055c-0.527,0.718-1.391,1.23-2.388,1.23
				c-1.846,0-3.149-1.406-3.149-3.706c0-2.256,1.289-3.721,3.149-3.721c0.953,0,1.816,0.469,2.388,1.245v-3.765h1.099v9.771H184.412
				z M184.412,474.665v-3.208c-0.395-0.615-1.245-1.142-2.124-1.142c-1.42,0-2.271,1.172-2.271,2.739
				c0,1.567,0.85,2.725,2.271,2.725C183.167,475.778,184.017,475.28,184.412,474.665z"/>
			<path id="XMLID_4356_" style="fill:#1D262D;" d="M186.932,473.039c0-2.051,1.465-3.706,3.486-3.706
				c2.139,0,3.398,1.67,3.398,3.794v0.278h-5.727c0.088,1.333,1.025,2.446,2.549,2.446c0.806,0,1.626-0.322,2.182-0.894l0.527,0.718
				c-0.703,0.703-1.655,1.084-2.813,1.084C188.44,476.76,186.932,475.251,186.932,473.039z M190.403,470.241
				c-1.509,0-2.256,1.274-2.314,2.358h4.643C192.717,471.545,192.014,470.241,190.403,470.241z"/>
			<path id="XMLID_4341_" style="fill:#1D262D;" d="M194.607,475.647l0.571-0.791c0.469,0.542,1.362,1.011,2.329,1.011
				c1.084,0,1.67-0.513,1.67-1.216c0-1.714-4.38-0.659-4.38-3.281c0-1.099,0.952-2.036,2.636-2.036c1.201,0,2.051,0.454,2.622,1.025
				l-0.513,0.762c-0.424-0.513-1.201-0.893-2.109-0.893c-0.966,0-1.567,0.483-1.567,1.113c0,1.553,4.38,0.527,4.38,3.281
				c0,1.186-0.952,2.139-2.783,2.139C196.306,476.76,195.324,476.408,194.607,475.647z"/>
			<path id="XMLID_4336_" style="fill:#1D262D;" d="M201.477,467.766c0-0.41,0.337-0.747,0.732-0.747
				c0.41,0,0.747,0.337,0.747,0.747c0,0.41-0.337,0.732-0.747,0.732C201.813,468.498,201.477,468.176,201.477,467.766z
				 M201.667,476.584v-7.075h1.099v7.075H201.667z"/>
			<path id="XMLID_4331_" style="fill:#1D262D;" d="M204.582,478.4l0.556-0.82c0.586,0.703,1.289,0.967,2.3,0.967
				c1.172,0,2.27-0.571,2.27-2.124v-1.011c-0.513,0.718-1.377,1.26-2.373,1.26c-1.846,0-3.149-1.377-3.149-3.662
				c0-2.271,1.289-3.677,3.149-3.677c0.952,0,1.802,0.469,2.373,1.245v-1.069h1.099v6.87c0,2.344-1.641,3.076-3.369,3.076
				C206.237,479.455,205.416,479.22,204.582,478.4z M209.708,474.548v-3.091c-0.381-0.615-1.23-1.142-2.109-1.142
				c-1.421,0-2.27,1.128-2.27,2.695c0,1.553,0.85,2.695,2.27,2.695C208.478,475.705,209.328,475.163,209.708,474.548z"/>
			<path id="XMLID_4323_" style="fill:#1D262D;" d="M217.413,476.584v-4.629c0-1.245-0.63-1.641-1.582-1.641
				c-0.864,0-1.685,0.527-2.095,1.099v5.171h-1.099v-7.075h1.099v1.025c0.498-0.586,1.465-1.201,2.52-1.201
				c1.48,0,2.256,0.747,2.256,2.285v4.966H217.413z"/>
			<path id="XMLID_4316_" style="fill:#1D262D;" d="M219.932,473.039c0-2.051,1.465-3.706,3.486-3.706
				c2.139,0,3.398,1.67,3.398,3.794v0.278h-5.727c0.087,1.333,1.025,2.446,2.548,2.446c0.806,0,1.626-0.322,2.183-0.894l0.527,0.718
				c-0.703,0.703-1.655,1.084-2.813,1.084C221.441,476.76,219.932,475.251,219.932,473.039z M223.404,470.241
				c-1.509,0-2.256,1.274-2.314,2.358h4.643C225.718,471.545,225.015,470.241,223.404,470.241z"/>
			<path id="XMLID_4312_" style="fill:#1D262D;" d="M233.35,476.584v-1.055c-0.527,0.718-1.392,1.23-2.388,1.23
				c-1.846,0-3.149-1.406-3.149-3.706c0-2.256,1.289-3.721,3.149-3.721c0.952,0,1.817,0.469,2.388,1.245v-3.765h1.099v9.771H233.35z
				 M233.35,474.665v-3.208c-0.395-0.615-1.245-1.142-2.124-1.142c-1.421,0-2.27,1.172-2.27,2.739c0,1.567,0.849,2.725,2.27,2.725
				C232.104,475.778,232.954,475.28,233.35,474.665z"/>
			<path id="XMLID_4298_" style="fill:#1D262D;" d="M239.692,476.584v-9.771h1.098v3.765c0.572-0.776,1.421-1.245,2.388-1.245
				c1.845,0,3.149,1.465,3.149,3.721c0,2.3-1.304,3.706-3.149,3.706c-0.996,0-1.86-0.513-2.388-1.23v1.055H239.692z
				 M242.899,475.778c1.436,0,2.286-1.157,2.286-2.725c0-1.567-0.85-2.739-2.286-2.739c-0.864,0-1.728,0.527-2.109,1.142v3.208
				C241.171,475.28,242.036,475.778,242.899,475.778z"/>
			<path id="XMLID_4295_" style="fill:#1D262D;" d="M247.528,478.356c0.161,0.073,0.425,0.117,0.601,0.117
				c0.483,0,0.806-0.161,1.055-0.747l0.469-1.069l-2.959-7.148h1.187l2.358,5.801l2.344-5.801h1.2l-3.544,8.511
				c-0.425,1.024-1.143,1.421-2.08,1.436c-0.234,0-0.601-0.044-0.806-0.104L247.528,478.356z"/>
		</g>
	</g>
</g>
</svg>
